<?xml version="1.0" encoding="utf-8" standalone="no"?>
<!DOCTYPE svg PUBLIC "-//W3C//DTD SVG 1.1//EN"
  "http://www.w3.org/Graphics/SVG/1.1/DTD/svg11.dtd">
<svg xmlns:xlink="http://www.w3.org/1999/xlink" width="425.142812pt" height="423.329687pt" viewBox="0 0 425.142812 423.329687" xmlns="http://www.w3.org/2000/svg" version="1.1">
 <metadata>
  <rdf:RDF xmlns:dc="http://purl.org/dc/elements/1.1/" xmlns:cc="http://creativecommons.org/ns#" xmlns:rdf="http://www.w3.org/1999/02/22-rdf-syntax-ns#">
   <cc:Work>
    <dc:type rdf:resource="http://purl.org/dc/dcmitype/StillImage"/>
    <dc:date>2025-09-13T02:16:26.181998</dc:date>
    <dc:format>image/svg+xml</dc:format>
    <dc:creator>
     <cc:Agent>
      <dc:title>Matplotlib v3.10.6, https://matplotlib.org/</dc:title>
     </cc:Agent>
    </dc:creator>
   </cc:Work>
  </rdf:RDF>
 </metadata>
 <defs>
  <style type="text/css">*{stroke-linejoin: round; stroke-linecap: butt}</style>
 </defs>
 <g id="figure_1">
  <g id="patch_1">
   <path d="M 0 423.329687 
L 425.142812 423.329687 
L 425.142812 -0 
L 0 -0 
z
" style="fill: #ffffff"/>
  </g>
  <g id="axes_1">
   <g id="patch_2">
    <path d="M 69.932813 392.676875 
L 417.942813 392.676875 
L 417.942813 34.396875 
L 69.932813 34.396875 
z
" style="fill: #ffffff"/>
   </g>
   <g id="patch_3">
    <path d="M 85.751449 392.676875 
L 209.213977 392.676875 
L 209.213977 52.45778 
L 85.751449 52.45778 
z
" clip-path="url(#ped7f48df2f)" style="fill: #1f77b4"/>
   </g>
   <g id="patch_4">
    <path d="M 278.661648 392.676875 
L 402.124176 392.676875 
L 402.124176 128.8463 
L 278.661648 128.8463 
z
" clip-path="url(#ped7f48df2f)" style="fill: #ff7f0e"/>
   </g>
   <g id="patch_5">
    <path d="M 278.661648 128.8463 
L 402.124176 128.8463 
L 402.124176 51.457827 
L 278.661648 51.457827 
z
" clip-path="url(#ped7f48df2f)" style="fill: #2ca02c"/>
   </g>
   <g id="matplotlib.axis_1">
    <g id="xtick_1">
     <g id="line2d_1">
      <defs>
       <path id="m3809a37264" d="M 0 0 
L 0 3.5 
" style="stroke: #000000; stroke-width: 0.8"/>
      </defs>
      <g>
       <use xlink:href="#m3809a37264" x="147.482713" y="392.676875" style="stroke: #000000; stroke-width: 0.8"/>
      </g>
     </g>
     <g id="text_1">
      <!-- goto -->
      <g transform="translate(128.3524 412.594219) scale(0.17 -0.17)">
       <defs>
        <path id="DejaVuSans-67" d="M 2906 1791 
Q 2906 2416 2648 2759 
Q 2391 3103 1925 3103 
Q 1463 3103 1205 2759 
Q 947 2416 947 1791 
Q 947 1169 1205 825 
Q 1463 481 1925 481 
Q 2391 481 2648 825 
Q 2906 1169 2906 1791 
z
M 3481 434 
Q 3481 -459 3084 -895 
Q 2688 -1331 1869 -1331 
Q 1566 -1331 1297 -1286 
Q 1028 -1241 775 -1147 
L 775 -588 
Q 1028 -725 1275 -790 
Q 1522 -856 1778 -856 
Q 2344 -856 2625 -561 
Q 2906 -266 2906 331 
L 2906 616 
Q 2728 306 2450 153 
Q 2172 0 1784 0 
Q 1141 0 747 490 
Q 353 981 353 1791 
Q 353 2603 747 3093 
Q 1141 3584 1784 3584 
Q 2172 3584 2450 3431 
Q 2728 3278 2906 2969 
L 2906 3500 
L 3481 3500 
L 3481 434 
z
" transform="scale(0.015625)"/>
        <path id="DejaVuSans-6f" d="M 1959 3097 
Q 1497 3097 1228 2736 
Q 959 2375 959 1747 
Q 959 1119 1226 758 
Q 1494 397 1959 397 
Q 2419 397 2687 759 
Q 2956 1122 2956 1747 
Q 2956 2369 2687 2733 
Q 2419 3097 1959 3097 
z
M 1959 3584 
Q 2709 3584 3137 3096 
Q 3566 2609 3566 1747 
Q 3566 888 3137 398 
Q 2709 -91 1959 -91 
Q 1206 -91 779 398 
Q 353 888 353 1747 
Q 353 2609 779 3096 
Q 1206 3584 1959 3584 
z
" transform="scale(0.015625)"/>
        <path id="DejaVuSans-74" d="M 1172 4494 
L 1172 3500 
L 2356 3500 
L 2356 3053 
L 1172 3053 
L 1172 1153 
Q 1172 725 1289 603 
Q 1406 481 1766 481 
L 2356 481 
L 2356 0 
L 1766 0 
Q 1100 0 847 248 
Q 594 497 594 1153 
L 594 3053 
L 172 3053 
L 172 3500 
L 594 3500 
L 594 4494 
L 1172 4494 
z
" transform="scale(0.015625)"/>
       </defs>
       <use xlink:href="#DejaVuSans-67"/>
       <use xlink:href="#DejaVuSans-6f" transform="translate(63.476562 0)"/>
       <use xlink:href="#DejaVuSans-74" transform="translate(124.658203 0)"/>
       <use xlink:href="#DejaVuSans-6f" transform="translate(163.867188 0)"/>
      </g>
     </g>
    </g>
    <g id="xtick_2">
     <g id="line2d_2">
      <g>
       <use xlink:href="#m3809a37264" x="340.392912" y="392.676875" style="stroke: #000000; stroke-width: 0.8"/>
      </g>
     </g>
     <g id="text_2">
      <!-- direct -->
      <g transform="translate(316.096194 412.594219) scale(0.17 -0.17)">
       <defs>
        <path id="DejaVuSans-64" d="M 2906 2969 
L 2906 4863 
L 3481 4863 
L 3481 0 
L 2906 0 
L 2906 525 
Q 2725 213 2448 61 
Q 2172 -91 1784 -91 
Q 1150 -91 751 415 
Q 353 922 353 1747 
Q 353 2572 751 3078 
Q 1150 3584 1784 3584 
Q 2172 3584 2448 3432 
Q 2725 3281 2906 2969 
z
M 947 1747 
Q 947 1113 1208 752 
Q 1469 391 1925 391 
Q 2381 391 2643 752 
Q 2906 1113 2906 1747 
Q 2906 2381 2643 2742 
Q 2381 3103 1925 3103 
Q 1469 3103 1208 2742 
Q 947 2381 947 1747 
z
" transform="scale(0.015625)"/>
        <path id="DejaVuSans-69" d="M 603 3500 
L 1178 3500 
L 1178 0 
L 603 0 
L 603 3500 
z
M 603 4863 
L 1178 4863 
L 1178 4134 
L 603 4134 
L 603 4863 
z
" transform="scale(0.015625)"/>
        <path id="DejaVuSans-72" d="M 2631 2963 
Q 2534 3019 2420 3045 
Q 2306 3072 2169 3072 
Q 1681 3072 1420 2755 
Q 1159 2438 1159 1844 
L 1159 0 
L 581 0 
L 581 3500 
L 1159 3500 
L 1159 2956 
Q 1341 3275 1631 3429 
Q 1922 3584 2338 3584 
Q 2397 3584 2469 3576 
Q 2541 3569 2628 3553 
L 2631 2963 
z
" transform="scale(0.015625)"/>
        <path id="DejaVuSans-65" d="M 3597 1894 
L 3597 1613 
L 953 1613 
Q 991 1019 1311 708 
Q 1631 397 2203 397 
Q 2534 397 2845 478 
Q 3156 559 3463 722 
L 3463 178 
Q 3153 47 2828 -22 
Q 2503 -91 2169 -91 
Q 1331 -91 842 396 
Q 353 884 353 1716 
Q 353 2575 817 3079 
Q 1281 3584 2069 3584 
Q 2775 3584 3186 3129 
Q 3597 2675 3597 1894 
z
M 3022 2063 
Q 3016 2534 2758 2815 
Q 2500 3097 2075 3097 
Q 1594 3097 1305 2825 
Q 1016 2553 972 2059 
L 3022 2063 
z
" transform="scale(0.015625)"/>
        <path id="DejaVuSans-63" d="M 3122 3366 
L 3122 2828 
Q 2878 2963 2633 3030 
Q 2388 3097 2138 3097 
Q 1578 3097 1268 2742 
Q 959 2388 959 1747 
Q 959 1106 1268 751 
Q 1578 397 2138 397 
Q 2388 397 2633 464 
Q 2878 531 3122 666 
L 3122 134 
Q 2881 22 2623 -34 
Q 2366 -91 2075 -91 
Q 1284 -91 818 406 
Q 353 903 353 1747 
Q 353 2603 823 3093 
Q 1294 3584 2113 3584 
Q 2378 3584 2631 3529 
Q 2884 3475 3122 3366 
z
" transform="scale(0.015625)"/>
       </defs>
       <use xlink:href="#DejaVuSans-64"/>
       <use xlink:href="#DejaVuSans-69" transform="translate(63.476562 0)"/>
       <use xlink:href="#DejaVuSans-72" transform="translate(91.259766 0)"/>
       <use xlink:href="#DejaVuSans-65" transform="translate(130.123047 0)"/>
       <use xlink:href="#DejaVuSans-63" transform="translate(191.646484 0)"/>
       <use xlink:href="#DejaVuSans-74" transform="translate(246.626953 0)"/>
      </g>
     </g>
    </g>
   </g>
   <g id="matplotlib.axis_2">
    <g id="ytick_1">
     <g id="line2d_3">
      <defs>
       <path id="m83f94f1b88" d="M 0 0 
L -3.5 0 
" style="stroke: #000000; stroke-width: 0.8"/>
      </defs>
      <g>
       <use xlink:href="#m83f94f1b88" x="69.932813" y="392.676875" style="stroke: #000000; stroke-width: 0.8"/>
      </g>
     </g>
     <g id="text_3">
      <!-- 0 ms -->
      <g transform="translate(38.442188 396.476094) scale(0.1 -0.1)">
       <defs>
        <path id="DejaVuSans-30" d="M 2034 4250 
Q 1547 4250 1301 3770 
Q 1056 3291 1056 2328 
Q 1056 1369 1301 889 
Q 1547 409 2034 409 
Q 2525 409 2770 889 
Q 3016 1369 3016 2328 
Q 3016 3291 2770 3770 
Q 2525 4250 2034 4250 
z
M 2034 4750 
Q 2819 4750 3233 4129 
Q 3647 3509 3647 2328 
Q 3647 1150 3233 529 
Q 2819 -91 2034 -91 
Q 1250 -91 836 529 
Q 422 1150 422 2328 
Q 422 3509 836 4129 
Q 1250 4750 2034 4750 
z
" transform="scale(0.015625)"/>
        <path id="DejaVuSans-20" transform="scale(0.015625)"/>
        <path id="DejaVuSans-6d" d="M 3328 2828 
Q 3544 3216 3844 3400 
Q 4144 3584 4550 3584 
Q 5097 3584 5394 3201 
Q 5691 2819 5691 2113 
L 5691 0 
L 5113 0 
L 5113 2094 
Q 5113 2597 4934 2840 
Q 4756 3084 4391 3084 
Q 3944 3084 3684 2787 
Q 3425 2491 3425 1978 
L 3425 0 
L 2847 0 
L 2847 2094 
Q 2847 2600 2669 2842 
Q 2491 3084 2119 3084 
Q 1678 3084 1418 2786 
Q 1159 2488 1159 1978 
L 1159 0 
L 581 0 
L 581 3500 
L 1159 3500 
L 1159 2956 
Q 1356 3278 1631 3431 
Q 1906 3584 2284 3584 
Q 2666 3584 2933 3390 
Q 3200 3197 3328 2828 
z
" transform="scale(0.015625)"/>
        <path id="DejaVuSans-73" d="M 2834 3397 
L 2834 2853 
Q 2591 2978 2328 3040 
Q 2066 3103 1784 3103 
Q 1356 3103 1142 2972 
Q 928 2841 928 2578 
Q 928 2378 1081 2264 
Q 1234 2150 1697 2047 
L 1894 2003 
Q 2506 1872 2764 1633 
Q 3022 1394 3022 966 
Q 3022 478 2636 193 
Q 2250 -91 1575 -91 
Q 1294 -91 989 -36 
Q 684 19 347 128 
L 347 722 
Q 666 556 975 473 
Q 1284 391 1588 391 
Q 1994 391 2212 530 
Q 2431 669 2431 922 
Q 2431 1156 2273 1281 
Q 2116 1406 1581 1522 
L 1381 1569 
Q 847 1681 609 1914 
Q 372 2147 372 2553 
Q 372 3047 722 3315 
Q 1072 3584 1716 3584 
Q 2034 3584 2315 3537 
Q 2597 3491 2834 3397 
z
" transform="scale(0.015625)"/>
       </defs>
       <use xlink:href="#DejaVuSans-30"/>
       <use xlink:href="#DejaVuSans-20" transform="translate(63.623047 0)"/>
       <use xlink:href="#DejaVuSans-6d" transform="translate(95.410156 0)"/>
       <use xlink:href="#DejaVuSans-73" transform="translate(192.822266 0)"/>
      </g>
     </g>
    </g>
    <g id="ytick_2">
     <g id="line2d_4">
      <g>
       <use xlink:href="#m83f94f1b88" x="69.932813" y="327.32051" style="stroke: #000000; stroke-width: 0.8"/>
      </g>
     </g>
     <g id="text_4">
      <!-- 100 ms -->
      <g transform="translate(25.717188 331.119728) scale(0.1 -0.1)">
       <defs>
        <path id="DejaVuSans-31" d="M 794 531 
L 1825 531 
L 1825 4091 
L 703 3866 
L 703 4441 
L 1819 4666 
L 2450 4666 
L 2450 531 
L 3481 531 
L 3481 0 
L 794 0 
L 794 531 
z
" transform="scale(0.015625)"/>
       </defs>
       <use xlink:href="#DejaVuSans-31"/>
       <use xlink:href="#DejaVuSans-30" transform="translate(63.623047 0)"/>
       <use xlink:href="#DejaVuSans-30" transform="translate(127.246094 0)"/>
       <use xlink:href="#DejaVuSans-20" transform="translate(190.869141 0)"/>
       <use xlink:href="#DejaVuSans-6d" transform="translate(222.65625 0)"/>
       <use xlink:href="#DejaVuSans-73" transform="translate(320.068359 0)"/>
      </g>
     </g>
    </g>
    <g id="ytick_3">
     <g id="line2d_5">
      <g>
       <use xlink:href="#m83f94f1b88" x="69.932813" y="261.964144" style="stroke: #000000; stroke-width: 0.8"/>
      </g>
     </g>
     <g id="text_5">
      <!-- 200 ms -->
      <g transform="translate(25.717188 265.763363) scale(0.1 -0.1)">
       <defs>
        <path id="DejaVuSans-32" d="M 1228 531 
L 3431 531 
L 3431 0 
L 469 0 
L 469 531 
Q 828 903 1448 1529 
Q 2069 2156 2228 2338 
Q 2531 2678 2651 2914 
Q 2772 3150 2772 3378 
Q 2772 3750 2511 3984 
Q 2250 4219 1831 4219 
Q 1534 4219 1204 4116 
Q 875 4013 500 3803 
L 500 4441 
Q 881 4594 1212 4672 
Q 1544 4750 1819 4750 
Q 2544 4750 2975 4387 
Q 3406 4025 3406 3419 
Q 3406 3131 3298 2873 
Q 3191 2616 2906 2266 
Q 2828 2175 2409 1742 
Q 1991 1309 1228 531 
z
" transform="scale(0.015625)"/>
       </defs>
       <use xlink:href="#DejaVuSans-32"/>
       <use xlink:href="#DejaVuSans-30" transform="translate(63.623047 0)"/>
       <use xlink:href="#DejaVuSans-30" transform="translate(127.246094 0)"/>
       <use xlink:href="#DejaVuSans-20" transform="translate(190.869141 0)"/>
       <use xlink:href="#DejaVuSans-6d" transform="translate(222.65625 0)"/>
       <use xlink:href="#DejaVuSans-73" transform="translate(320.068359 0)"/>
      </g>
     </g>
    </g>
    <g id="ytick_4">
     <g id="line2d_6">
      <g>
       <use xlink:href="#m83f94f1b88" x="69.932813" y="196.607779" style="stroke: #000000; stroke-width: 0.8"/>
      </g>
     </g>
     <g id="text_6">
      <!-- 300 ms -->
      <g transform="translate(25.717188 200.406998) scale(0.1 -0.1)">
       <defs>
        <path id="DejaVuSans-33" d="M 2597 2516 
Q 3050 2419 3304 2112 
Q 3559 1806 3559 1356 
Q 3559 666 3084 287 
Q 2609 -91 1734 -91 
Q 1441 -91 1130 -33 
Q 819 25 488 141 
L 488 750 
Q 750 597 1062 519 
Q 1375 441 1716 441 
Q 2309 441 2620 675 
Q 2931 909 2931 1356 
Q 2931 1769 2642 2001 
Q 2353 2234 1838 2234 
L 1294 2234 
L 1294 2753 
L 1863 2753 
Q 2328 2753 2575 2939 
Q 2822 3125 2822 3475 
Q 2822 3834 2567 4026 
Q 2313 4219 1838 4219 
Q 1578 4219 1281 4162 
Q 984 4106 628 3988 
L 628 4550 
Q 988 4650 1302 4700 
Q 1616 4750 1894 4750 
Q 2613 4750 3031 4423 
Q 3450 4097 3450 3541 
Q 3450 3153 3228 2886 
Q 3006 2619 2597 2516 
z
" transform="scale(0.015625)"/>
       </defs>
       <use xlink:href="#DejaVuSans-33"/>
       <use xlink:href="#DejaVuSans-30" transform="translate(63.623047 0)"/>
       <use xlink:href="#DejaVuSans-30" transform="translate(127.246094 0)"/>
       <use xlink:href="#DejaVuSans-20" transform="translate(190.869141 0)"/>
       <use xlink:href="#DejaVuSans-6d" transform="translate(222.65625 0)"/>
       <use xlink:href="#DejaVuSans-73" transform="translate(320.068359 0)"/>
      </g>
     </g>
    </g>
    <g id="ytick_5">
     <g id="line2d_7">
      <g>
       <use xlink:href="#m83f94f1b88" x="69.932813" y="131.251414" style="stroke: #000000; stroke-width: 0.8"/>
      </g>
     </g>
     <g id="text_7">
      <!-- 400 ms -->
      <g transform="translate(25.717188 135.050633) scale(0.1 -0.1)">
       <defs>
        <path id="DejaVuSans-34" d="M 2419 4116 
L 825 1625 
L 2419 1625 
L 2419 4116 
z
M 2253 4666 
L 3047 4666 
L 3047 1625 
L 3713 1625 
L 3713 1100 
L 3047 1100 
L 3047 0 
L 2419 0 
L 2419 1100 
L 313 1100 
L 313 1709 
L 2253 4666 
z
" transform="scale(0.015625)"/>
       </defs>
       <use xlink:href="#DejaVuSans-34"/>
       <use xlink:href="#DejaVuSans-30" transform="translate(63.623047 0)"/>
       <use xlink:href="#DejaVuSans-30" transform="translate(127.246094 0)"/>
       <use xlink:href="#DejaVuSans-20" transform="translate(190.869141 0)"/>
       <use xlink:href="#DejaVuSans-6d" transform="translate(222.65625 0)"/>
       <use xlink:href="#DejaVuSans-73" transform="translate(320.068359 0)"/>
      </g>
     </g>
    </g>
    <g id="ytick_6">
     <g id="line2d_8">
      <g>
       <use xlink:href="#m83f94f1b88" x="69.932813" y="65.895048" style="stroke: #000000; stroke-width: 0.8"/>
      </g>
     </g>
     <g id="text_8">
      <!-- 500 ms -->
      <g transform="translate(25.717188 69.694267) scale(0.1 -0.1)">
       <defs>
        <path id="DejaVuSans-35" d="M 691 4666 
L 3169 4666 
L 3169 4134 
L 1269 4134 
L 1269 2991 
Q 1406 3038 1543 3061 
Q 1681 3084 1819 3084 
Q 2600 3084 3056 2656 
Q 3513 2228 3513 1497 
Q 3513 744 3044 326 
Q 2575 -91 1722 -91 
Q 1428 -91 1123 -41 
Q 819 9 494 109 
L 494 744 
Q 775 591 1075 516 
Q 1375 441 1709 441 
Q 2250 441 2565 725 
Q 2881 1009 2881 1497 
Q 2881 1984 2565 2268 
Q 2250 2553 1709 2553 
Q 1456 2553 1204 2497 
Q 953 2441 691 2322 
L 691 4666 
z
" transform="scale(0.015625)"/>
       </defs>
       <use xlink:href="#DejaVuSans-35"/>
       <use xlink:href="#DejaVuSans-30" transform="translate(63.623047 0)"/>
       <use xlink:href="#DejaVuSans-30" transform="translate(127.246094 0)"/>
       <use xlink:href="#DejaVuSans-20" transform="translate(190.869141 0)"/>
       <use xlink:href="#DejaVuSans-6d" transform="translate(222.65625 0)"/>
       <use xlink:href="#DejaVuSans-73" transform="translate(320.068359 0)"/>
      </g>
     </g>
    </g>
    <g id="text_9">
     <!-- Time -->
     <g transform="translate(18.597656 231.887266) rotate(-90) scale(0.15 -0.15)">
      <defs>
       <path id="DejaVuSans-54" d="M -19 4666 
L 3928 4666 
L 3928 4134 
L 2272 4134 
L 2272 0 
L 1638 0 
L 1638 4134 
L -19 4134 
L -19 4666 
z
" transform="scale(0.015625)"/>
      </defs>
      <use xlink:href="#DejaVuSans-54"/>
      <use xlink:href="#DejaVuSans-69" transform="translate(57.958984 0)"/>
      <use xlink:href="#DejaVuSans-6d" transform="translate(85.742188 0)"/>
      <use xlink:href="#DejaVuSans-65" transform="translate(183.154297 0)"/>
     </g>
    </g>
   </g>
   <g id="patch_6">
    <path d="M 69.932813 392.676875 
L 69.932813 34.396875 
" style="fill: none; stroke: #000000; stroke-width: 0.8; stroke-linejoin: miter; stroke-linecap: square"/>
   </g>
   <g id="patch_7">
    <path d="M 69.932812 392.676875 
L 417.942812 392.676875 
" style="fill: none; stroke: #000000; stroke-width: 0.8; stroke-linejoin: miter; stroke-linecap: square"/>
   </g>
   <g id="text_10">
    <path d="M 104.167244 214.864202 
L 110.749431 214.864202 
L 110.749431 216.277327 
L 105.702556 216.277327 
L 105.702556 219.313421 
Q 106.066463 219.188577 106.430369 219.127484 
Q 106.796931 219.06639 107.163494 219.06639 
Q 109.238025 219.06639 110.449275 220.203265 
Q 111.663181 221.34014 111.663181 223.281859 
Q 111.663181 225.282015 110.4174 226.392327 
Q 109.171619 227.499984 106.905838 227.499984 
Q 106.1249 227.499984 105.314744 227.367171 
Q 104.507244 227.234359 103.643963 226.968734 
L 103.643963 225.282015 
Q 104.390369 225.688421 105.187244 225.88764 
Q 105.984119 226.086859 106.871306 226.086859 
Q 108.308338 226.086859 109.145056 225.332484 
Q 109.984431 224.578109 109.984431 223.281859 
Q 109.984431 221.988265 109.145056 221.23389 
Q 108.308338 220.476859 106.871306 220.476859 
Q 106.199275 220.476859 105.5299 220.625609 
Q 104.863181 220.774359 104.167244 221.090452 
L 104.167244 214.864202 
z
M 116.409568 225.847796 
L 122.261287 225.847796 
L 122.261287 227.258265 
L 114.393474 227.258265 
L 114.393474 225.847796 
Q 115.347068 224.859671 116.993943 223.196859 
Q 118.643474 221.53139 119.065818 221.047952 
Q 119.870662 220.144827 120.189412 219.517952 
Q 120.510818 218.891077 120.510818 218.285452 
Q 120.510818 217.297327 119.817537 216.675765 
Q 119.124256 216.051546 118.011287 216.051546 
Q 117.222381 216.051546 116.345818 216.32514 
Q 115.471912 216.598734 114.475818 217.156546 
L 114.475818 215.461859 
Q 115.487849 215.055452 116.367068 214.848265 
Q 117.248943 214.641077 117.979412 214.641077 
Q 119.905193 214.641077 121.050037 215.605296 
Q 122.194881 216.566859 122.194881 218.176546 
Q 122.194881 218.941546 121.908006 219.626859 
Q 121.623787 220.309515 120.866756 221.239202 
Q 120.659568 221.480921 119.546599 222.631077 
Q 118.436287 223.781234 116.409568 225.847796 
z
M 129.366424 215.969202 
Q 128.07283 215.969202 127.419392 217.244202 
Q 126.768611 218.516546 126.768611 221.074515 
Q 126.768611 223.621859 127.419392 224.896859 
Q 128.07283 226.171859 129.366424 226.171859 
Q 130.670642 226.171859 131.321424 224.896859 
Q 131.974861 223.621859 131.974861 221.074515 
Q 131.974861 218.516546 131.321424 217.244202 
Q 130.670642 215.969202 129.366424 215.969202 
z
M 129.366424 214.641077 
Q 131.45158 214.641077 132.551267 216.290609 
Q 133.650955 217.937484 133.650955 221.074515 
Q 133.650955 224.203577 132.551267 225.853109 
Q 131.45158 227.499984 129.366424 227.499984 
Q 127.283924 227.499984 126.184236 225.853109 
Q 125.084549 224.203577 125.084549 221.074515 
Q 125.084549 217.937484 126.184236 216.290609 
Q 127.283924 214.641077 129.366424 214.641077 
z
M 136.596404 225.149202 
L 138.349529 225.149202 
L 138.349529 227.258265 
L 136.596404 227.258265 
L 136.596404 225.149202 
z
M 142.018806 214.864202 
L 148.600994 214.864202 
L 148.600994 216.277327 
L 143.554119 216.277327 
L 143.554119 219.313421 
Q 143.918025 219.188577 144.281931 219.127484 
Q 144.648494 219.06639 145.015056 219.06639 
Q 147.089588 219.06639 148.300838 220.203265 
Q 149.514744 221.34014 149.514744 223.281859 
Q 149.514744 225.282015 148.268963 226.392327 
Q 147.023181 227.499984 144.7574 227.499984 
Q 143.976463 227.499984 143.166306 227.367171 
Q 142.358806 227.234359 141.495525 226.968734 
L 141.495525 225.282015 
Q 142.241931 225.688421 143.038806 225.88764 
Q 143.835681 226.086859 144.722869 226.086859 
Q 146.1599 226.086859 146.996619 225.332484 
Q 147.835994 224.578109 147.835994 223.281859 
Q 147.835994 221.988265 146.996619 221.23389 
Q 146.1599 220.476859 144.722869 220.476859 
Q 144.050838 220.476859 143.381463 220.625609 
Q 142.714744 220.774359 142.018806 221.090452 
L 142.018806 214.864202 
z
M 156.611912 220.394515 
Q 155.483006 220.394515 154.821599 221.167484 
Q 154.162849 221.937796 154.162849 223.281859 
Q 154.162849 224.617952 154.821599 225.396234 
Q 155.483006 226.171859 156.611912 226.171859 
Q 157.740818 226.171859 158.399568 225.396234 
Q 159.058318 224.617952 159.058318 223.281859 
Q 159.058318 221.937796 158.399568 221.167484 
Q 157.740818 220.394515 156.611912 220.394515 
z
M 159.940193 215.137796 
L 159.940193 216.66514 
Q 159.308006 216.36764 158.665193 216.210921 
Q 158.022381 216.051546 157.390193 216.051546 
Q 155.730037 216.051546 154.853474 217.172484 
Q 153.979568 218.293421 153.854724 220.559202 
Q 154.343474 219.836702 155.081912 219.451546 
Q 155.823006 219.06639 156.710193 219.06639 
Q 158.577537 219.06639 159.661287 220.200609 
Q 160.745037 221.332171 160.745037 223.281859 
Q 160.745037 225.191702 159.616131 226.347171 
Q 158.487224 227.499984 156.611912 227.499984 
Q 154.460349 227.499984 153.323474 225.853109 
Q 152.186599 224.203577 152.186599 221.074515 
Q 152.186599 218.136702 153.581131 216.38889 
Q 154.975662 214.641077 157.323787 214.641077 
Q 157.955974 214.641077 158.598787 214.765921 
Q 159.241599 214.890765 159.940193 215.137796 
z
M 176.058982 219.74639 
Q 176.632732 218.715765 177.429607 218.227015 
Q 178.226482 217.738265 179.30492 217.738265 
Q 180.757889 217.738265 181.546795 218.755609 
Q 182.335701 219.770296 182.335701 221.645609 
L 182.335701 227.258265 
L 180.800389 227.258265 
L 180.800389 221.696077 
Q 180.800389 220.359984 180.32492 219.714515 
Q 179.852107 219.06639 178.882576 219.06639 
Q 177.695232 219.06639 177.004607 219.855296 
Q 176.316639 220.641546 176.316639 222.004202 
L 176.316639 227.258265 
L 174.781326 227.258265 
L 174.781326 221.696077 
Q 174.781326 220.352015 174.308514 219.709202 
Q 173.835701 219.06639 172.847576 219.06639 
Q 171.67617 219.06639 170.985545 219.857952 
Q 170.297576 220.649515 170.297576 222.004202 
L 170.297576 227.258265 
L 168.762264 227.258265 
L 168.762264 217.96139 
L 170.297576 217.96139 
L 170.297576 219.40639 
Q 170.820857 218.551077 171.551326 218.144671 
Q 172.281795 217.738265 173.285857 217.738265 
Q 174.300545 217.738265 175.009764 218.253577 
Q 175.718982 218.766234 176.058982 219.74639 
z
M 191.306853 218.234984 
L 191.306853 219.679984 
Q 190.661385 219.347952 189.962791 219.183265 
Q 189.266853 219.015921 188.517791 219.015921 
Q 187.380916 219.015921 186.812478 219.36389 
Q 186.244041 219.711859 186.244041 220.410452 
Q 186.244041 220.941702 186.650447 221.244515 
Q 187.056853 221.547327 188.286697 221.820921 
L 188.809978 221.937796 
Q 190.435603 222.285765 191.120916 222.920609 
Q 191.806228 223.555452 191.806228 224.692327 
Q 191.806228 225.988577 190.780916 226.745609 
Q 189.755603 227.499984 187.962635 227.499984 
Q 187.216228 227.499984 186.406072 227.35389 
Q 185.595916 227.207796 184.70076 226.918265 
L 184.70076 225.340452 
Q 185.548103 225.78139 186.368885 226.001859 
Q 187.189666 226.219671 187.997166 226.219671 
Q 189.075603 226.219671 189.654666 225.850452 
Q 190.236385 225.481234 190.236385 224.809202 
Q 190.236385 224.18764 189.816697 223.855609 
Q 189.399666 223.523577 187.978572 223.215452 
L 187.447322 223.090609 
Q 186.028885 222.793109 185.396697 222.174202 
Q 184.767166 221.555296 184.767166 220.476859 
Q 184.767166 219.164671 185.696853 218.452796 
Q 186.626541 217.738265 188.337166 217.738265 
Q 189.181853 217.738265 189.92826 217.863109 
Q 190.677322 217.985296 191.306853 218.234984 
z
" style="fill: #ffffff; stroke: #000000; stroke-width: 5"/>
    <path d="M 104.167244 214.864202 
L 110.749431 214.864202 
L 110.749431 216.277327 
L 105.702556 216.277327 
L 105.702556 219.313421 
Q 106.066463 219.188577 106.430369 219.127484 
Q 106.796931 219.06639 107.163494 219.06639 
Q 109.238025 219.06639 110.449275 220.203265 
Q 111.663181 221.34014 111.663181 223.281859 
Q 111.663181 225.282015 110.4174 226.392327 
Q 109.171619 227.499984 106.905838 227.499984 
Q 106.1249 227.499984 105.314744 227.367171 
Q 104.507244 227.234359 103.643963 226.968734 
L 103.643963 225.282015 
Q 104.390369 225.688421 105.187244 225.88764 
Q 105.984119 226.086859 106.871306 226.086859 
Q 108.308338 226.086859 109.145056 225.332484 
Q 109.984431 224.578109 109.984431 223.281859 
Q 109.984431 221.988265 109.145056 221.23389 
Q 108.308338 220.476859 106.871306 220.476859 
Q 106.199275 220.476859 105.5299 220.625609 
Q 104.863181 220.774359 104.167244 221.090452 
L 104.167244 214.864202 
z
M 116.409568 225.847796 
L 122.261287 225.847796 
L 122.261287 227.258265 
L 114.393474 227.258265 
L 114.393474 225.847796 
Q 115.347068 224.859671 116.993943 223.196859 
Q 118.643474 221.53139 119.065818 221.047952 
Q 119.870662 220.144827 120.189412 219.517952 
Q 120.510818 218.891077 120.510818 218.285452 
Q 120.510818 217.297327 119.817537 216.675765 
Q 119.124256 216.051546 118.011287 216.051546 
Q 117.222381 216.051546 116.345818 216.32514 
Q 115.471912 216.598734 114.475818 217.156546 
L 114.475818 215.461859 
Q 115.487849 215.055452 116.367068 214.848265 
Q 117.248943 214.641077 117.979412 214.641077 
Q 119.905193 214.641077 121.050037 215.605296 
Q 122.194881 216.566859 122.194881 218.176546 
Q 122.194881 218.941546 121.908006 219.626859 
Q 121.623787 220.309515 120.866756 221.239202 
Q 120.659568 221.480921 119.546599 222.631077 
Q 118.436287 223.781234 116.409568 225.847796 
z
M 129.366424 215.969202 
Q 128.07283 215.969202 127.419392 217.244202 
Q 126.768611 218.516546 126.768611 221.074515 
Q 126.768611 223.621859 127.419392 224.896859 
Q 128.07283 226.171859 129.366424 226.171859 
Q 130.670642 226.171859 131.321424 224.896859 
Q 131.974861 223.621859 131.974861 221.074515 
Q 131.974861 218.516546 131.321424 217.244202 
Q 130.670642 215.969202 129.366424 215.969202 
z
M 129.366424 214.641077 
Q 131.45158 214.641077 132.551267 216.290609 
Q 133.650955 217.937484 133.650955 221.074515 
Q 133.650955 224.203577 132.551267 225.853109 
Q 131.45158 227.499984 129.366424 227.499984 
Q 127.283924 227.499984 126.184236 225.853109 
Q 125.084549 224.203577 125.084549 221.074515 
Q 125.084549 217.937484 126.184236 216.290609 
Q 127.283924 214.641077 129.366424 214.641077 
z
M 136.596404 225.149202 
L 138.349529 225.149202 
L 138.349529 227.258265 
L 136.596404 227.258265 
L 136.596404 225.149202 
z
M 142.018806 214.864202 
L 148.600994 214.864202 
L 148.600994 216.277327 
L 143.554119 216.277327 
L 143.554119 219.313421 
Q 143.918025 219.188577 144.281931 219.127484 
Q 144.648494 219.06639 145.015056 219.06639 
Q 147.089588 219.06639 148.300838 220.203265 
Q 149.514744 221.34014 149.514744 223.281859 
Q 149.514744 225.282015 148.268963 226.392327 
Q 147.023181 227.499984 144.7574 227.499984 
Q 143.976463 227.499984 143.166306 227.367171 
Q 142.358806 227.234359 141.495525 226.968734 
L 141.495525 225.282015 
Q 142.241931 225.688421 143.038806 225.88764 
Q 143.835681 226.086859 144.722869 226.086859 
Q 146.1599 226.086859 146.996619 225.332484 
Q 147.835994 224.578109 147.835994 223.281859 
Q 147.835994 221.988265 146.996619 221.23389 
Q 146.1599 220.476859 144.722869 220.476859 
Q 144.050838 220.476859 143.381463 220.625609 
Q 142.714744 220.774359 142.018806 221.090452 
L 142.018806 214.864202 
z
M 156.611912 220.394515 
Q 155.483006 220.394515 154.821599 221.167484 
Q 154.162849 221.937796 154.162849 223.281859 
Q 154.162849 224.617952 154.821599 225.396234 
Q 155.483006 226.171859 156.611912 226.171859 
Q 157.740818 226.171859 158.399568 225.396234 
Q 159.058318 224.617952 159.058318 223.281859 
Q 159.058318 221.937796 158.399568 221.167484 
Q 157.740818 220.394515 156.611912 220.394515 
z
M 159.940193 215.137796 
L 159.940193 216.66514 
Q 159.308006 216.36764 158.665193 216.210921 
Q 158.022381 216.051546 157.390193 216.051546 
Q 155.730037 216.051546 154.853474 217.172484 
Q 153.979568 218.293421 153.854724 220.559202 
Q 154.343474 219.836702 155.081912 219.451546 
Q 155.823006 219.06639 156.710193 219.06639 
Q 158.577537 219.06639 159.661287 220.200609 
Q 160.745037 221.332171 160.745037 223.281859 
Q 160.745037 225.191702 159.616131 226.347171 
Q 158.487224 227.499984 156.611912 227.499984 
Q 154.460349 227.499984 153.323474 225.853109 
Q 152.186599 224.203577 152.186599 221.074515 
Q 152.186599 218.136702 153.581131 216.38889 
Q 154.975662 214.641077 157.323787 214.641077 
Q 157.955974 214.641077 158.598787 214.765921 
Q 159.241599 214.890765 159.940193 215.137796 
z
M 176.058982 219.74639 
Q 176.632732 218.715765 177.429607 218.227015 
Q 178.226482 217.738265 179.30492 217.738265 
Q 180.757889 217.738265 181.546795 218.755609 
Q 182.335701 219.770296 182.335701 221.645609 
L 182.335701 227.258265 
L 180.800389 227.258265 
L 180.800389 221.696077 
Q 180.800389 220.359984 180.32492 219.714515 
Q 179.852107 219.06639 178.882576 219.06639 
Q 177.695232 219.06639 177.004607 219.855296 
Q 176.316639 220.641546 176.316639 222.004202 
L 176.316639 227.258265 
L 174.781326 227.258265 
L 174.781326 221.696077 
Q 174.781326 220.352015 174.308514 219.709202 
Q 173.835701 219.06639 172.847576 219.06639 
Q 171.67617 219.06639 170.985545 219.857952 
Q 170.297576 220.649515 170.297576 222.004202 
L 170.297576 227.258265 
L 168.762264 227.258265 
L 168.762264 217.96139 
L 170.297576 217.96139 
L 170.297576 219.40639 
Q 170.820857 218.551077 171.551326 218.144671 
Q 172.281795 217.738265 173.285857 217.738265 
Q 174.300545 217.738265 175.009764 218.253577 
Q 175.718982 218.766234 176.058982 219.74639 
z
M 191.306853 218.234984 
L 191.306853 219.679984 
Q 190.661385 219.347952 189.962791 219.183265 
Q 189.266853 219.015921 188.517791 219.015921 
Q 187.380916 219.015921 186.812478 219.36389 
Q 186.244041 219.711859 186.244041 220.410452 
Q 186.244041 220.941702 186.650447 221.244515 
Q 187.056853 221.547327 188.286697 221.820921 
L 188.809978 221.937796 
Q 190.435603 222.285765 191.120916 222.920609 
Q 191.806228 223.555452 191.806228 224.692327 
Q 191.806228 225.988577 190.780916 226.745609 
Q 189.755603 227.499984 187.962635 227.499984 
Q 187.216228 227.499984 186.406072 227.35389 
Q 185.595916 227.207796 184.70076 226.918265 
L 184.70076 225.340452 
Q 185.548103 225.78139 186.368885 226.001859 
Q 187.189666 226.219671 187.997166 226.219671 
Q 189.075603 226.219671 189.654666 225.850452 
Q 190.236385 225.481234 190.236385 224.809202 
Q 190.236385 224.18764 189.816697 223.855609 
Q 189.399666 223.523577 187.978572 223.215452 
L 187.447322 223.090609 
Q 186.028885 222.793109 185.396697 222.174202 
Q 184.767166 221.555296 184.767166 220.476859 
Q 184.767166 219.164671 185.696853 218.452796 
Q 186.626541 217.738265 188.337166 217.738265 
Q 189.181853 217.738265 189.92826 217.863109 
Q 190.677322 217.985296 191.306853 218.234984 
z
" style="fill: #ffffff"/>
   </g>
   <g id="text_11">
    <path d="M 315.074865 248.063915 
Q 314.817209 247.915165 314.514397 247.846103 
Q 314.211584 247.774384 313.847678 247.774384 
Q 312.551428 247.774384 311.858147 248.616415 
Q 311.164865 249.458447 311.164865 251.036259 
L 311.164865 255.934384 
L 309.629553 255.934384 
L 309.629553 246.637509 
L 311.164865 246.637509 
L 311.164865 248.082509 
Q 311.648303 247.235165 312.418615 246.826103 
Q 313.191584 246.414384 314.296584 246.414384 
Q 314.453303 246.414384 314.644553 246.435634 
Q 314.835803 246.454228 315.066897 246.496728 
L 315.074865 248.063915 
z
M 324.247561 250.903447 
L 324.247561 251.649853 
L 317.224436 251.649853 
Q 317.325373 253.227665 318.175373 254.053759 
Q 319.025373 254.879853 320.544748 254.879853 
Q 321.423967 254.879853 322.250061 254.664697 
Q 323.076154 254.44954 323.891623 254.016572 
L 323.891623 255.461572 
Q 323.068186 255.80954 322.204904 255.992822 
Q 321.341623 256.176103 320.454436 256.176103 
Q 318.228498 256.176103 316.929592 254.882509 
Q 315.630686 253.586259 315.630686 251.376259 
Q 315.630686 249.09454 316.863186 247.75579 
Q 318.095686 246.414384 320.188811 246.414384 
Q 322.064123 246.414384 323.155842 247.622978 
Q 324.247561 248.828915 324.247561 250.903447 
z
M 322.720217 250.45454 
Q 322.704279 249.203447 322.018967 248.45704 
Q 321.333654 247.707978 320.204748 247.707978 
Q 318.927092 247.707978 318.159436 248.430478 
Q 317.391779 249.152978 317.274904 250.465165 
L 322.720217 250.45454 
z
M 327.667483 251.293915 
Q 327.667483 252.977978 328.360764 253.936884 
Q 329.054045 254.89579 330.265295 254.89579 
Q 331.476545 254.89579 332.172483 253.936884 
Q 332.871076 252.977978 332.871076 251.293915 
Q 332.871076 249.609853 332.172483 248.650947 
Q 331.476545 247.69204 330.265295 247.69204 
Q 329.054045 247.69204 328.360764 248.650947 
Q 327.667483 249.609853 327.667483 251.293915 
z
M 332.871076 254.539853 
Q 332.390295 255.368603 331.654514 255.772353 
Q 330.921389 256.176103 329.890764 256.176103 
Q 328.206701 256.176103 327.146858 254.83204 
Q 326.08967 253.485322 326.08967 251.293915 
Q 326.08967 249.102509 327.146858 247.758447 
Q 328.206701 246.414384 329.890764 246.414384 
Q 330.921389 246.414384 331.654514 246.818134 
Q 332.390295 247.219228 332.871076 248.047978 
L 332.871076 246.637509 
L 334.39842 246.637509 
L 334.39842 259.469853 
L 332.871076 259.469853 
L 332.871076 254.539853 
z
M 337.388029 252.266103 
L 337.388029 246.637509 
L 338.915373 246.637509 
L 338.915373 252.207665 
Q 338.915373 253.527822 339.428029 254.189228 
Q 339.943342 254.847978 340.973967 254.847978 
Q 342.209123 254.847978 342.926311 254.059072 
Q 343.646154 253.270165 343.646154 251.907509 
L 343.646154 246.637509 
L 345.173498 246.637509 
L 345.173498 255.934384 
L 343.646154 255.934384 
L 343.646154 254.505322 
Q 343.090998 255.352665 342.355217 255.764384 
Q 341.622092 256.176103 340.649904 256.176103 
Q 339.048186 256.176103 338.216779 255.180009 
Q 337.388029 254.183915 337.388029 252.266103 
z
M 341.231623 246.414384 
L 341.231623 246.414384 
z
M 356.271975 250.903447 
L 356.271975 251.649853 
L 349.24885 251.649853 
Q 349.349787 253.227665 350.199787 254.053759 
Q 351.049787 254.879853 352.569162 254.879853 
Q 353.448381 254.879853 354.274475 254.664697 
Q 355.100569 254.44954 355.916037 254.016572 
L 355.916037 255.461572 
Q 355.0926 255.80954 354.229319 255.992822 
Q 353.366037 256.176103 352.47885 256.176103 
Q 350.252912 256.176103 348.954006 254.882509 
Q 347.6551 253.586259 347.6551 251.376259 
Q 347.6551 249.09454 348.8876 247.75579 
Q 350.1201 246.414384 352.213225 246.414384 
Q 354.088537 246.414384 355.180256 247.622978 
Q 356.271975 248.828915 356.271975 250.903447 
z
M 354.744631 250.45454 
Q 354.728694 249.203447 354.043381 248.45704 
Q 353.358069 247.707978 352.229162 247.707978 
Q 350.951506 247.707978 350.18385 248.430478 
Q 349.416194 249.152978 349.299319 250.465165 
L 354.744631 250.45454 
z
M 364.70424 246.911103 
L 364.70424 248.356103 
Q 364.058772 248.024072 363.360178 247.859384 
Q 362.66424 247.69204 361.915178 247.69204 
Q 360.778303 247.69204 360.209865 248.040009 
Q 359.641428 248.387978 359.641428 249.086572 
Q 359.641428 249.617822 360.047834 249.920634 
Q 360.45424 250.223447 361.684084 250.49704 
L 362.207365 250.613915 
Q 363.83299 250.961884 364.518303 251.596728 
Q 365.203615 252.231572 365.203615 253.368447 
Q 365.203615 254.664697 364.178303 255.421728 
Q 363.15299 256.176103 361.360022 256.176103 
Q 360.613615 256.176103 359.803459 256.030009 
Q 358.993303 255.883915 358.098147 255.594384 
L 358.098147 254.016572 
Q 358.94549 254.457509 359.766272 254.677978 
Q 360.587053 254.89579 361.394553 254.89579 
Q 362.47299 254.89579 363.052053 254.526572 
Q 363.633772 254.157353 363.633772 253.485322 
Q 363.633772 252.863759 363.214084 252.531728 
Q 362.797053 252.199697 361.375959 251.891572 
L 360.844709 251.766728 
Q 359.426272 251.469228 358.794084 250.850322 
Q 358.164553 250.231415 358.164553 249.152978 
Q 358.164553 247.84079 359.09424 247.128915 
Q 360.023928 246.414384 361.734553 246.414384 
Q 362.57924 246.414384 363.325647 246.539228 
Q 364.074709 246.661415 364.70424 246.911103 
z
M 369.146486 243.997197 
L 369.146486 246.637509 
L 372.291486 246.637509 
L 372.291486 247.824853 
L 369.146486 247.824853 
L 369.146486 252.871728 
Q 369.146486 254.008603 369.457268 254.332665 
Q 369.768049 254.656728 370.724299 254.656728 
L 372.291486 254.656728 
L 372.291486 255.934384 
L 370.724299 255.934384 
Q 368.955236 255.934384 368.283205 255.275634 
Q 367.611174 254.614228 367.611174 252.871728 
L 367.611174 247.824853 
L 366.490236 247.824853 
L 366.490236 246.637509 
L 367.611174 246.637509 
L 367.611174 243.997197 
L 369.146486 243.997197 
z
" style="fill: #ffffff; stroke: #000000; stroke-width: 5"/>
    <path d="M 315.074865 248.063915 
Q 314.817209 247.915165 314.514397 247.846103 
Q 314.211584 247.774384 313.847678 247.774384 
Q 312.551428 247.774384 311.858147 248.616415 
Q 311.164865 249.458447 311.164865 251.036259 
L 311.164865 255.934384 
L 309.629553 255.934384 
L 309.629553 246.637509 
L 311.164865 246.637509 
L 311.164865 248.082509 
Q 311.648303 247.235165 312.418615 246.826103 
Q 313.191584 246.414384 314.296584 246.414384 
Q 314.453303 246.414384 314.644553 246.435634 
Q 314.835803 246.454228 315.066897 246.496728 
L 315.074865 248.063915 
z
M 324.247561 250.903447 
L 324.247561 251.649853 
L 317.224436 251.649853 
Q 317.325373 253.227665 318.175373 254.053759 
Q 319.025373 254.879853 320.544748 254.879853 
Q 321.423967 254.879853 322.250061 254.664697 
Q 323.076154 254.44954 323.891623 254.016572 
L 323.891623 255.461572 
Q 323.068186 255.80954 322.204904 255.992822 
Q 321.341623 256.176103 320.454436 256.176103 
Q 318.228498 256.176103 316.929592 254.882509 
Q 315.630686 253.586259 315.630686 251.376259 
Q 315.630686 249.09454 316.863186 247.75579 
Q 318.095686 246.414384 320.188811 246.414384 
Q 322.064123 246.414384 323.155842 247.622978 
Q 324.247561 248.828915 324.247561 250.903447 
z
M 322.720217 250.45454 
Q 322.704279 249.203447 322.018967 248.45704 
Q 321.333654 247.707978 320.204748 247.707978 
Q 318.927092 247.707978 318.159436 248.430478 
Q 317.391779 249.152978 317.274904 250.465165 
L 322.720217 250.45454 
z
M 327.667483 251.293915 
Q 327.667483 252.977978 328.360764 253.936884 
Q 329.054045 254.89579 330.265295 254.89579 
Q 331.476545 254.89579 332.172483 253.936884 
Q 332.871076 252.977978 332.871076 251.293915 
Q 332.871076 249.609853 332.172483 248.650947 
Q 331.476545 247.69204 330.265295 247.69204 
Q 329.054045 247.69204 328.360764 248.650947 
Q 327.667483 249.609853 327.667483 251.293915 
z
M 332.871076 254.539853 
Q 332.390295 255.368603 331.654514 255.772353 
Q 330.921389 256.176103 329.890764 256.176103 
Q 328.206701 256.176103 327.146858 254.83204 
Q 326.08967 253.485322 326.08967 251.293915 
Q 326.08967 249.102509 327.146858 247.758447 
Q 328.206701 246.414384 329.890764 246.414384 
Q 330.921389 246.414384 331.654514 246.818134 
Q 332.390295 247.219228 332.871076 248.047978 
L 332.871076 246.637509 
L 334.39842 246.637509 
L 334.39842 259.469853 
L 332.871076 259.469853 
L 332.871076 254.539853 
z
M 337.388029 252.266103 
L 337.388029 246.637509 
L 338.915373 246.637509 
L 338.915373 252.207665 
Q 338.915373 253.527822 339.428029 254.189228 
Q 339.943342 254.847978 340.973967 254.847978 
Q 342.209123 254.847978 342.926311 254.059072 
Q 343.646154 253.270165 343.646154 251.907509 
L 343.646154 246.637509 
L 345.173498 246.637509 
L 345.173498 255.934384 
L 343.646154 255.934384 
L 343.646154 254.505322 
Q 343.090998 255.352665 342.355217 255.764384 
Q 341.622092 256.176103 340.649904 256.176103 
Q 339.048186 256.176103 338.216779 255.180009 
Q 337.388029 254.183915 337.388029 252.266103 
z
M 341.231623 246.414384 
L 341.231623 246.414384 
z
M 356.271975 250.903447 
L 356.271975 251.649853 
L 349.24885 251.649853 
Q 349.349787 253.227665 350.199787 254.053759 
Q 351.049787 254.879853 352.569162 254.879853 
Q 353.448381 254.879853 354.274475 254.664697 
Q 355.100569 254.44954 355.916037 254.016572 
L 355.916037 255.461572 
Q 355.0926 255.80954 354.229319 255.992822 
Q 353.366037 256.176103 352.47885 256.176103 
Q 350.252912 256.176103 348.954006 254.882509 
Q 347.6551 253.586259 347.6551 251.376259 
Q 347.6551 249.09454 348.8876 247.75579 
Q 350.1201 246.414384 352.213225 246.414384 
Q 354.088537 246.414384 355.180256 247.622978 
Q 356.271975 248.828915 356.271975 250.903447 
z
M 354.744631 250.45454 
Q 354.728694 249.203447 354.043381 248.45704 
Q 353.358069 247.707978 352.229162 247.707978 
Q 350.951506 247.707978 350.18385 248.430478 
Q 349.416194 249.152978 349.299319 250.465165 
L 354.744631 250.45454 
z
M 364.70424 246.911103 
L 364.70424 248.356103 
Q 364.058772 248.024072 363.360178 247.859384 
Q 362.66424 247.69204 361.915178 247.69204 
Q 360.778303 247.69204 360.209865 248.040009 
Q 359.641428 248.387978 359.641428 249.086572 
Q 359.641428 249.617822 360.047834 249.920634 
Q 360.45424 250.223447 361.684084 250.49704 
L 362.207365 250.613915 
Q 363.83299 250.961884 364.518303 251.596728 
Q 365.203615 252.231572 365.203615 253.368447 
Q 365.203615 254.664697 364.178303 255.421728 
Q 363.15299 256.176103 361.360022 256.176103 
Q 360.613615 256.176103 359.803459 256.030009 
Q 358.993303 255.883915 358.098147 255.594384 
L 358.098147 254.016572 
Q 358.94549 254.457509 359.766272 254.677978 
Q 360.587053 254.89579 361.394553 254.89579 
Q 362.47299 254.89579 363.052053 254.526572 
Q 363.633772 254.157353 363.633772 253.485322 
Q 363.633772 252.863759 363.214084 252.531728 
Q 362.797053 252.199697 361.375959 251.891572 
L 360.844709 251.766728 
Q 359.426272 251.469228 358.794084 250.850322 
Q 358.164553 250.231415 358.164553 249.152978 
Q 358.164553 247.84079 359.09424 247.128915 
Q 360.023928 246.414384 361.734553 246.414384 
Q 362.57924 246.414384 363.325647 246.539228 
Q 364.074709 246.661415 364.70424 246.911103 
z
M 369.146486 243.997197 
L 369.146486 246.637509 
L 372.291486 246.637509 
L 372.291486 247.824853 
L 369.146486 247.824853 
L 369.146486 252.871728 
Q 369.146486 254.008603 369.457268 254.332665 
Q 369.768049 254.656728 370.724299 254.656728 
L 372.291486 254.656728 
L 372.291486 255.934384 
L 370.724299 255.934384 
Q 368.955236 255.934384 368.283205 255.275634 
Q 367.611174 254.614228 367.611174 252.871728 
L 367.611174 247.824853 
L 366.490236 247.824853 
L 366.490236 246.637509 
L 367.611174 246.637509 
L 367.611174 243.997197 
L 369.146486 243.997197 
z
" style="fill: #ffffff"/>
    <path d="M 301.667444 264.03754 
L 297.433381 270.654259 
L 301.667444 270.654259 
L 301.667444 264.03754 
z
M 301.226506 262.576603 
L 303.335569 262.576603 
L 303.335569 270.654259 
L 305.104631 270.654259 
L 305.104631 272.04879 
L 303.335569 272.04879 
L 303.335569 274.970665 
L 301.667444 274.970665 
L 301.667444 272.04879 
L 296.073381 272.04879 
L 296.073381 270.431134 
L 301.226506 262.576603 
z
M 311.460705 263.681603 
Q 310.167111 263.681603 309.513674 264.956603 
Q 308.862893 266.228947 308.862893 268.786915 
Q 308.862893 271.334259 309.513674 272.609259 
Q 310.167111 273.884259 311.460705 273.884259 
Q 312.764924 273.884259 313.415705 272.609259 
Q 314.069143 271.334259 314.069143 268.786915 
Q 314.069143 266.228947 313.415705 264.956603 
Q 312.764924 263.681603 311.460705 263.681603 
z
M 311.460705 262.353478 
Q 313.545861 262.353478 314.645549 264.003009 
Q 315.745236 265.649884 315.745236 268.786915 
Q 315.745236 271.915978 314.645549 273.565509 
Q 313.545861 275.212384 311.460705 275.212384 
Q 309.378205 275.212384 308.278518 273.565509 
Q 307.17883 271.915978 307.17883 268.786915 
Q 307.17883 265.649884 308.278518 264.003009 
Q 309.378205 262.353478 311.460705 262.353478 
z
M 323.772092 268.28754 
Q 324.975373 268.545197 325.650061 269.360665 
Q 326.327404 270.173478 326.327404 271.36879 
Q 326.327404 273.201603 325.065686 274.208322 
Q 323.803967 275.212384 321.479748 275.212384 
Q 320.701467 275.212384 319.875373 275.058322 
Q 319.049279 274.904259 318.170061 274.596134 
L 318.170061 272.978478 
Q 318.865998 273.384884 319.694748 273.592072 
Q 320.526154 273.799259 321.431936 273.799259 
Q 323.007092 273.799259 323.833186 273.177697 
Q 324.659279 272.556134 324.659279 271.36879 
Q 324.659279 270.271759 323.891623 269.655509 
Q 323.123967 269.036603 321.755998 269.036603 
L 320.310998 269.036603 
L 320.310998 267.658009 
L 321.822404 267.658009 
Q 323.057561 267.658009 323.713654 267.163947 
Q 324.369748 266.669884 324.369748 265.740197 
Q 324.369748 264.786603 323.692404 264.276603 
Q 323.017717 263.763947 321.755998 263.763947 
Q 321.065373 263.763947 320.276467 263.915353 
Q 319.487561 264.064103 318.541936 264.37754 
L 318.541936 262.884728 
Q 319.498186 262.619103 320.332248 262.48629 
Q 321.166311 262.353478 321.904748 262.353478 
Q 323.814592 262.353478 324.924904 263.222072 
Q 326.037873 264.088009 326.037873 265.564884 
Q 326.037873 266.595509 325.448186 267.304728 
Q 324.858498 268.013947 323.772092 268.28754 
z
M 329.506604 272.861603 
L 331.259729 272.861603 
L 331.259729 274.970665 
L 329.506604 274.970665 
L 329.506604 272.861603 
z
M 338.706194 268.106915 
Q 337.577287 268.106915 336.915881 268.879884 
Q 336.257131 269.650197 336.257131 270.994259 
Q 336.257131 272.330353 336.915881 273.108634 
Q 337.577287 273.884259 338.706194 273.884259 
Q 339.8351 273.884259 340.49385 273.108634 
Q 341.1526 272.330353 341.1526 270.994259 
Q 341.1526 269.650197 340.49385 268.879884 
Q 339.8351 268.106915 338.706194 268.106915 
z
M 342.034475 262.850197 
L 342.034475 264.37754 
Q 341.402287 264.08004 340.759475 263.923322 
Q 340.116662 263.763947 339.484475 263.763947 
Q 337.824319 263.763947 336.947756 264.884884 
Q 336.07385 266.005822 335.949006 268.271603 
Q 336.437756 267.549103 337.176194 267.163947 
Q 337.917287 266.77879 338.804475 266.77879 
Q 340.671819 266.77879 341.755569 267.913009 
Q 342.839319 269.044572 342.839319 270.994259 
Q 342.839319 272.904103 341.710412 274.059572 
Q 340.581506 275.212384 338.706194 275.212384 
Q 336.554631 275.212384 335.417756 273.565509 
Q 334.280881 271.915978 334.280881 268.786915 
Q 334.280881 265.849103 335.675412 264.10129 
Q 337.069944 262.353478 339.418069 262.353478 
Q 340.050256 262.353478 340.693069 262.478322 
Q 341.335881 262.603165 342.034475 262.850197 
z
M 349.312268 269.084415 
Q 348.116955 269.084415 347.431643 269.724572 
Q 346.748986 270.364728 346.748986 271.483009 
Q 346.748986 272.603947 347.431643 273.244103 
Q 348.116955 273.884259 349.312268 273.884259 
Q 350.50758 273.884259 351.195549 273.241447 
Q 351.886174 272.595978 351.886174 271.483009 
Q 351.886174 270.364728 351.200861 269.724572 
Q 350.518205 269.084415 349.312268 269.084415 
z
M 347.636174 268.37254 
Q 346.557736 268.106915 345.954768 267.368478 
Q 345.354455 266.627384 345.354455 265.564884 
Q 345.354455 264.08004 346.411643 263.216759 
Q 347.471486 262.353478 349.312268 262.353478 
Q 351.163674 262.353478 352.218205 263.216759 
Q 353.272736 264.08004 353.272736 265.564884 
Q 353.272736 266.627384 352.669768 267.368478 
Q 352.069455 268.106915 350.998986 268.37254 
Q 352.210236 268.654103 352.884924 269.47754 
Q 353.562268 270.298322 353.562268 271.483009 
Q 353.562268 273.286603 352.46258 274.250822 
Q 351.362893 275.212384 349.312268 275.212384 
Q 347.264299 275.212384 346.161955 274.250822 
Q 345.062268 273.286603 345.062268 271.483009 
Q 345.062268 270.298322 345.742268 269.47754 
Q 346.424924 268.654103 347.636174 268.37254 
z
M 347.02258 265.724259 
Q 347.02258 266.685822 347.622893 267.22504 
Q 348.225861 267.764259 349.312268 267.764259 
Q 350.393361 267.764259 351.001643 267.22504 
Q 351.61258 266.685822 351.61258 265.724259 
Q 351.61258 264.76004 351.001643 264.220822 
Q 350.393361 263.681603 349.312268 263.681603 
Q 348.225861 263.681603 347.622893 264.220822 
Q 347.02258 264.76004 347.02258 265.724259 
z
M 368.969182 267.45879 
Q 369.542932 266.428165 370.339807 265.939415 
Q 371.136682 265.450665 372.215119 265.450665 
Q 373.668088 265.450665 374.456994 266.468009 
Q 375.245901 267.482697 375.245901 269.358009 
L 375.245901 274.970665 
L 373.710588 274.970665 
L 373.710588 269.408478 
Q 373.710588 268.072384 373.235119 267.426915 
Q 372.762307 266.77879 371.792776 266.77879 
Q 370.605432 266.77879 369.914807 267.567697 
Q 369.226838 268.353947 369.226838 269.716603 
L 369.226838 274.970665 
L 367.691526 274.970665 
L 367.691526 269.408478 
Q 367.691526 268.064415 367.218713 267.421603 
Q 366.745901 266.77879 365.757776 266.77879 
Q 364.586369 266.77879 363.895744 267.570353 
Q 363.207776 268.361915 363.207776 269.716603 
L 363.207776 274.970665 
L 361.672463 274.970665 
L 361.672463 265.67379 
L 363.207776 265.67379 
L 363.207776 267.11879 
Q 363.731057 266.263478 364.461526 265.857072 
Q 365.191994 265.450665 366.196057 265.450665 
Q 367.210744 265.450665 367.919963 265.965978 
Q 368.629182 266.478634 368.969182 267.45879 
z
M 384.217053 265.947384 
L 384.217053 267.392384 
Q 383.571584 267.060353 382.87299 266.895665 
Q 382.177053 266.728322 381.42799 266.728322 
Q 380.291115 266.728322 379.722678 267.07629 
Q 379.15424 267.424259 379.15424 268.122853 
Q 379.15424 268.654103 379.560647 268.956915 
Q 379.967053 269.259728 381.196897 269.533322 
L 381.720178 269.650197 
Q 383.345803 269.998165 384.031115 270.633009 
Q 384.716428 271.267853 384.716428 272.404728 
Q 384.716428 273.700978 383.691115 274.458009 
Q 382.665803 275.212384 380.872834 275.212384 
Q 380.126428 275.212384 379.316272 275.06629 
Q 378.506115 274.920197 377.610959 274.630665 
L 377.610959 273.052853 
Q 378.458303 273.49379 379.279084 273.714259 
Q 380.099865 273.932072 380.907365 273.932072 
Q 381.985803 273.932072 382.564865 273.562853 
Q 383.146584 273.193634 383.146584 272.521603 
Q 383.146584 271.90004 382.726897 271.568009 
Q 382.309865 271.235978 380.888772 270.927853 
L 380.357522 270.803009 
Q 378.939084 270.505509 378.306897 269.886603 
Q 377.677365 269.267697 377.677365 268.189259 
Q 377.677365 266.877072 378.607053 266.165197 
Q 379.53674 265.450665 381.247365 265.450665 
Q 382.092053 265.450665 382.838459 265.575509 
Q 383.587522 265.697697 384.217053 265.947384 
z
" style="fill: #ffffff; stroke: #000000; stroke-width: 5"/>
    <path d="M 301.667444 264.03754 
L 297.433381 270.654259 
L 301.667444 270.654259 
L 301.667444 264.03754 
z
M 301.226506 262.576603 
L 303.335569 262.576603 
L 303.335569 270.654259 
L 305.104631 270.654259 
L 305.104631 272.04879 
L 303.335569 272.04879 
L 303.335569 274.970665 
L 301.667444 274.970665 
L 301.667444 272.04879 
L 296.073381 272.04879 
L 296.073381 270.431134 
L 301.226506 262.576603 
z
M 311.460705 263.681603 
Q 310.167111 263.681603 309.513674 264.956603 
Q 308.862893 266.228947 308.862893 268.786915 
Q 308.862893 271.334259 309.513674 272.609259 
Q 310.167111 273.884259 311.460705 273.884259 
Q 312.764924 273.884259 313.415705 272.609259 
Q 314.069143 271.334259 314.069143 268.786915 
Q 314.069143 266.228947 313.415705 264.956603 
Q 312.764924 263.681603 311.460705 263.681603 
z
M 311.460705 262.353478 
Q 313.545861 262.353478 314.645549 264.003009 
Q 315.745236 265.649884 315.745236 268.786915 
Q 315.745236 271.915978 314.645549 273.565509 
Q 313.545861 275.212384 311.460705 275.212384 
Q 309.378205 275.212384 308.278518 273.565509 
Q 307.17883 271.915978 307.17883 268.786915 
Q 307.17883 265.649884 308.278518 264.003009 
Q 309.378205 262.353478 311.460705 262.353478 
z
M 323.772092 268.28754 
Q 324.975373 268.545197 325.650061 269.360665 
Q 326.327404 270.173478 326.327404 271.36879 
Q 326.327404 273.201603 325.065686 274.208322 
Q 323.803967 275.212384 321.479748 275.212384 
Q 320.701467 275.212384 319.875373 275.058322 
Q 319.049279 274.904259 318.170061 274.596134 
L 318.170061 272.978478 
Q 318.865998 273.384884 319.694748 273.592072 
Q 320.526154 273.799259 321.431936 273.799259 
Q 323.007092 273.799259 323.833186 273.177697 
Q 324.659279 272.556134 324.659279 271.36879 
Q 324.659279 270.271759 323.891623 269.655509 
Q 323.123967 269.036603 321.755998 269.036603 
L 320.310998 269.036603 
L 320.310998 267.658009 
L 321.822404 267.658009 
Q 323.057561 267.658009 323.713654 267.163947 
Q 324.369748 266.669884 324.369748 265.740197 
Q 324.369748 264.786603 323.692404 264.276603 
Q 323.017717 263.763947 321.755998 263.763947 
Q 321.065373 263.763947 320.276467 263.915353 
Q 319.487561 264.064103 318.541936 264.37754 
L 318.541936 262.884728 
Q 319.498186 262.619103 320.332248 262.48629 
Q 321.166311 262.353478 321.904748 262.353478 
Q 323.814592 262.353478 324.924904 263.222072 
Q 326.037873 264.088009 326.037873 265.564884 
Q 326.037873 266.595509 325.448186 267.304728 
Q 324.858498 268.013947 323.772092 268.28754 
z
M 329.506604 272.861603 
L 331.259729 272.861603 
L 331.259729 274.970665 
L 329.506604 274.970665 
L 329.506604 272.861603 
z
M 338.706194 268.106915 
Q 337.577287 268.106915 336.915881 268.879884 
Q 336.257131 269.650197 336.257131 270.994259 
Q 336.257131 272.330353 336.915881 273.108634 
Q 337.577287 273.884259 338.706194 273.884259 
Q 339.8351 273.884259 340.49385 273.108634 
Q 341.1526 272.330353 341.1526 270.994259 
Q 341.1526 269.650197 340.49385 268.879884 
Q 339.8351 268.106915 338.706194 268.106915 
z
M 342.034475 262.850197 
L 342.034475 264.37754 
Q 341.402287 264.08004 340.759475 263.923322 
Q 340.116662 263.763947 339.484475 263.763947 
Q 337.824319 263.763947 336.947756 264.884884 
Q 336.07385 266.005822 335.949006 268.271603 
Q 336.437756 267.549103 337.176194 267.163947 
Q 337.917287 266.77879 338.804475 266.77879 
Q 340.671819 266.77879 341.755569 267.913009 
Q 342.839319 269.044572 342.839319 270.994259 
Q 342.839319 272.904103 341.710412 274.059572 
Q 340.581506 275.212384 338.706194 275.212384 
Q 336.554631 275.212384 335.417756 273.565509 
Q 334.280881 271.915978 334.280881 268.786915 
Q 334.280881 265.849103 335.675412 264.10129 
Q 337.069944 262.353478 339.418069 262.353478 
Q 340.050256 262.353478 340.693069 262.478322 
Q 341.335881 262.603165 342.034475 262.850197 
z
M 349.312268 269.084415 
Q 348.116955 269.084415 347.431643 269.724572 
Q 346.748986 270.364728 346.748986 271.483009 
Q 346.748986 272.603947 347.431643 273.244103 
Q 348.116955 273.884259 349.312268 273.884259 
Q 350.50758 273.884259 351.195549 273.241447 
Q 351.886174 272.595978 351.886174 271.483009 
Q 351.886174 270.364728 351.200861 269.724572 
Q 350.518205 269.084415 349.312268 269.084415 
z
M 347.636174 268.37254 
Q 346.557736 268.106915 345.954768 267.368478 
Q 345.354455 266.627384 345.354455 265.564884 
Q 345.354455 264.08004 346.411643 263.216759 
Q 347.471486 262.353478 349.312268 262.353478 
Q 351.163674 262.353478 352.218205 263.216759 
Q 353.272736 264.08004 353.272736 265.564884 
Q 353.272736 266.627384 352.669768 267.368478 
Q 352.069455 268.106915 350.998986 268.37254 
Q 352.210236 268.654103 352.884924 269.47754 
Q 353.562268 270.298322 353.562268 271.483009 
Q 353.562268 273.286603 352.46258 274.250822 
Q 351.362893 275.212384 349.312268 275.212384 
Q 347.264299 275.212384 346.161955 274.250822 
Q 345.062268 273.286603 345.062268 271.483009 
Q 345.062268 270.298322 345.742268 269.47754 
Q 346.424924 268.654103 347.636174 268.37254 
z
M 347.02258 265.724259 
Q 347.02258 266.685822 347.622893 267.22504 
Q 348.225861 267.764259 349.312268 267.764259 
Q 350.393361 267.764259 351.001643 267.22504 
Q 351.61258 266.685822 351.61258 265.724259 
Q 351.61258 264.76004 351.001643 264.220822 
Q 350.393361 263.681603 349.312268 263.681603 
Q 348.225861 263.681603 347.622893 264.220822 
Q 347.02258 264.76004 347.02258 265.724259 
z
M 368.969182 267.45879 
Q 369.542932 266.428165 370.339807 265.939415 
Q 371.136682 265.450665 372.215119 265.450665 
Q 373.668088 265.450665 374.456994 266.468009 
Q 375.245901 267.482697 375.245901 269.358009 
L 375.245901 274.970665 
L 373.710588 274.970665 
L 373.710588 269.408478 
Q 373.710588 268.072384 373.235119 267.426915 
Q 372.762307 266.77879 371.792776 266.77879 
Q 370.605432 266.77879 369.914807 267.567697 
Q 369.226838 268.353947 369.226838 269.716603 
L 369.226838 274.970665 
L 367.691526 274.970665 
L 367.691526 269.408478 
Q 367.691526 268.064415 367.218713 267.421603 
Q 366.745901 266.77879 365.757776 266.77879 
Q 364.586369 266.77879 363.895744 267.570353 
Q 363.207776 268.361915 363.207776 269.716603 
L 363.207776 274.970665 
L 361.672463 274.970665 
L 361.672463 265.67379 
L 363.207776 265.67379 
L 363.207776 267.11879 
Q 363.731057 266.263478 364.461526 265.857072 
Q 365.191994 265.450665 366.196057 265.450665 
Q 367.210744 265.450665 367.919963 265.965978 
Q 368.629182 266.478634 368.969182 267.45879 
z
M 384.217053 265.947384 
L 384.217053 267.392384 
Q 383.571584 267.060353 382.87299 266.895665 
Q 382.177053 266.728322 381.42799 266.728322 
Q 380.291115 266.728322 379.722678 267.07629 
Q 379.15424 267.424259 379.15424 268.122853 
Q 379.15424 268.654103 379.560647 268.956915 
Q 379.967053 269.259728 381.196897 269.533322 
L 381.720178 269.650197 
Q 383.345803 269.998165 384.031115 270.633009 
Q 384.716428 271.267853 384.716428 272.404728 
Q 384.716428 273.700978 383.691115 274.458009 
Q 382.665803 275.212384 380.872834 275.212384 
Q 380.126428 275.212384 379.316272 275.06629 
Q 378.506115 274.920197 377.610959 274.630665 
L 377.610959 273.052853 
Q 378.458303 273.49379 379.279084 273.714259 
Q 380.099865 273.932072 380.907365 273.932072 
Q 381.985803 273.932072 382.564865 273.562853 
Q 383.146584 273.193634 383.146584 272.521603 
Q 383.146584 271.90004 382.726897 271.568009 
Q 382.309865 271.235978 380.888772 270.927853 
L 380.357522 270.803009 
Q 378.939084 270.505509 378.306897 269.886603 
Q 377.677365 269.267697 377.677365 268.189259 
Q 377.677365 266.877072 378.607053 266.165197 
Q 379.53674 265.450665 381.247365 265.450665 
Q 382.092053 265.450665 382.838459 265.575509 
Q 383.587522 265.697697 384.217053 265.947384 
z
" style="fill: #ffffff"/>
   </g>
   <g id="text_12">
    <path d="M 319.340803 77.454392 
Q 319.083147 77.305642 318.780334 77.236579 
Q 318.477522 77.16486 318.113615 77.16486 
Q 316.817365 77.16486 316.124084 78.006892 
Q 315.430803 78.848923 315.430803 80.426735 
L 315.430803 85.32486 
L 313.89549 85.32486 
L 313.89549 76.027985 
L 315.430803 76.027985 
L 315.430803 77.472985 
Q 315.91424 76.625642 316.684553 76.216579 
Q 317.457522 75.80486 318.562522 75.80486 
Q 318.71924 75.80486 318.91049 75.82611 
Q 319.10174 75.844704 319.332834 75.887204 
L 319.340803 77.454392 
z
M 328.513498 80.293923 
L 328.513498 81.040329 
L 321.490373 81.040329 
Q 321.591311 82.618142 322.441311 83.444235 
Q 323.291311 84.270329 324.810686 84.270329 
Q 325.689904 84.270329 326.515998 84.055173 
Q 327.342092 83.840017 328.157561 83.407048 
L 328.157561 84.852048 
Q 327.334123 85.200017 326.470842 85.383298 
Q 325.607561 85.566579 324.720373 85.566579 
Q 322.494436 85.566579 321.195529 84.272985 
Q 319.896623 82.976735 319.896623 80.766735 
Q 319.896623 78.485017 321.129123 77.146267 
Q 322.361623 75.80486 324.454748 75.80486 
Q 326.330061 75.80486 327.421779 77.013454 
Q 328.513498 78.219392 328.513498 80.293923 
z
M 326.986154 79.845017 
Q 326.970217 78.593923 326.284904 77.847517 
Q 325.599592 77.098454 324.470686 77.098454 
Q 323.193029 77.098454 322.425373 77.820954 
Q 321.657717 78.543454 321.540842 79.855642 
L 326.986154 79.845017 
z
M 338.749358 79.712204 
L 338.749358 85.32486 
L 337.222014 85.32486 
L 337.222014 79.762673 
Q 337.222014 78.442517 336.706701 77.789079 
Q 336.191389 77.132985 335.16342 77.132985 
Q 333.925608 77.132985 333.211076 77.921892 
Q 332.496545 78.708142 332.496545 80.070798 
L 332.496545 85.32486 
L 330.961233 85.32486 
L 330.961233 76.027985 
L 332.496545 76.027985 
L 332.496545 77.472985 
Q 333.046389 76.63361 333.787483 76.219235 
Q 334.531233 75.80486 335.50342 75.80486 
Q 337.105139 75.80486 337.92592 76.795642 
Q 338.749358 77.786423 338.749358 79.712204 
z
M 347.911428 77.438454 
L 347.911428 72.407517 
L 349.438772 72.407517 
L 349.438772 85.32486 
L 347.911428 85.32486 
L 347.911428 83.930329 
Q 347.430647 84.759079 346.694865 85.162829 
Q 345.96174 85.566579 344.931115 85.566579 
Q 343.247053 85.566579 342.187209 84.222517 
Q 341.130022 82.875798 341.130022 80.684392 
Q 341.130022 78.492985 342.187209 77.148923 
Q 343.247053 75.80486 344.931115 75.80486 
Q 345.96174 75.80486 346.694865 76.20861 
Q 347.430647 76.609704 347.911428 77.438454 
z
M 342.707834 80.684392 
Q 342.707834 82.368454 343.401115 83.32736 
Q 344.094397 84.286267 345.305647 84.286267 
Q 346.516897 84.286267 347.212834 83.32736 
Q 347.911428 82.368454 347.911428 80.684392 
Q 347.911428 79.000329 347.212834 78.041423 
Q 346.516897 77.082517 345.305647 77.082517 
Q 344.094397 77.082517 343.401115 78.041423 
Q 342.707834 79.000329 342.707834 80.684392 
z
M 360.537912 80.293923 
L 360.537912 81.040329 
L 353.514787 81.040329 
Q 353.615725 82.618142 354.465725 83.444235 
Q 355.315725 84.270329 356.8351 84.270329 
Q 357.714319 84.270329 358.540412 84.055173 
Q 359.366506 83.840017 360.181975 83.407048 
L 360.181975 84.852048 
Q 359.358537 85.200017 358.495256 85.383298 
Q 357.631975 85.566579 356.744787 85.566579 
Q 354.51885 85.566579 353.219944 84.272985 
Q 351.921037 82.976735 351.921037 80.766735 
Q 351.921037 78.485017 353.153537 77.146267 
Q 354.386037 75.80486 356.479162 75.80486 
Q 358.354475 75.80486 359.446194 77.013454 
Q 360.537912 78.219392 360.537912 80.293923 
z
M 359.010569 79.845017 
Q 358.994631 78.593923 358.309319 77.847517 
Q 357.624006 77.098454 356.4951 77.098454 
Q 355.217444 77.098454 354.449787 77.820954 
Q 353.682131 78.543454 353.565256 79.855642 
L 359.010569 79.845017 
z
M 368.430959 77.454392 
Q 368.173303 77.305642 367.87049 77.236579 
Q 367.567678 77.16486 367.203772 77.16486 
Q 365.907522 77.16486 365.21424 78.006892 
Q 364.520959 78.848923 364.520959 80.426735 
L 364.520959 85.32486 
L 362.985647 85.32486 
L 362.985647 76.027985 
L 364.520959 76.027985 
L 364.520959 77.472985 
Q 365.004397 76.625642 365.774709 76.216579 
Q 366.547678 75.80486 367.652678 75.80486 
Q 367.809397 75.80486 368.000647 75.82611 
Q 368.191897 75.844704 368.42299 75.887204 
L 368.430959 77.454392 
z
" style="fill: #ffffff; stroke: #000000; stroke-width: 5"/>
    <path d="M 319.340803 77.454392 
Q 319.083147 77.305642 318.780334 77.236579 
Q 318.477522 77.16486 318.113615 77.16486 
Q 316.817365 77.16486 316.124084 78.006892 
Q 315.430803 78.848923 315.430803 80.426735 
L 315.430803 85.32486 
L 313.89549 85.32486 
L 313.89549 76.027985 
L 315.430803 76.027985 
L 315.430803 77.472985 
Q 315.91424 76.625642 316.684553 76.216579 
Q 317.457522 75.80486 318.562522 75.80486 
Q 318.71924 75.80486 318.91049 75.82611 
Q 319.10174 75.844704 319.332834 75.887204 
L 319.340803 77.454392 
z
M 328.513498 80.293923 
L 328.513498 81.040329 
L 321.490373 81.040329 
Q 321.591311 82.618142 322.441311 83.444235 
Q 323.291311 84.270329 324.810686 84.270329 
Q 325.689904 84.270329 326.515998 84.055173 
Q 327.342092 83.840017 328.157561 83.407048 
L 328.157561 84.852048 
Q 327.334123 85.200017 326.470842 85.383298 
Q 325.607561 85.566579 324.720373 85.566579 
Q 322.494436 85.566579 321.195529 84.272985 
Q 319.896623 82.976735 319.896623 80.766735 
Q 319.896623 78.485017 321.129123 77.146267 
Q 322.361623 75.80486 324.454748 75.80486 
Q 326.330061 75.80486 327.421779 77.013454 
Q 328.513498 78.219392 328.513498 80.293923 
z
M 326.986154 79.845017 
Q 326.970217 78.593923 326.284904 77.847517 
Q 325.599592 77.098454 324.470686 77.098454 
Q 323.193029 77.098454 322.425373 77.820954 
Q 321.657717 78.543454 321.540842 79.855642 
L 326.986154 79.845017 
z
M 338.749358 79.712204 
L 338.749358 85.32486 
L 337.222014 85.32486 
L 337.222014 79.762673 
Q 337.222014 78.442517 336.706701 77.789079 
Q 336.191389 77.132985 335.16342 77.132985 
Q 333.925608 77.132985 333.211076 77.921892 
Q 332.496545 78.708142 332.496545 80.070798 
L 332.496545 85.32486 
L 330.961233 85.32486 
L 330.961233 76.027985 
L 332.496545 76.027985 
L 332.496545 77.472985 
Q 333.046389 76.63361 333.787483 76.219235 
Q 334.531233 75.80486 335.50342 75.80486 
Q 337.105139 75.80486 337.92592 76.795642 
Q 338.749358 77.786423 338.749358 79.712204 
z
M 347.911428 77.438454 
L 347.911428 72.407517 
L 349.438772 72.407517 
L 349.438772 85.32486 
L 347.911428 85.32486 
L 347.911428 83.930329 
Q 347.430647 84.759079 346.694865 85.162829 
Q 345.96174 85.566579 344.931115 85.566579 
Q 343.247053 85.566579 342.187209 84.222517 
Q 341.130022 82.875798 341.130022 80.684392 
Q 341.130022 78.492985 342.187209 77.148923 
Q 343.247053 75.80486 344.931115 75.80486 
Q 345.96174 75.80486 346.694865 76.20861 
Q 347.430647 76.609704 347.911428 77.438454 
z
M 342.707834 80.684392 
Q 342.707834 82.368454 343.401115 83.32736 
Q 344.094397 84.286267 345.305647 84.286267 
Q 346.516897 84.286267 347.212834 83.32736 
Q 347.911428 82.368454 347.911428 80.684392 
Q 347.911428 79.000329 347.212834 78.041423 
Q 346.516897 77.082517 345.305647 77.082517 
Q 344.094397 77.082517 343.401115 78.041423 
Q 342.707834 79.000329 342.707834 80.684392 
z
M 360.537912 80.293923 
L 360.537912 81.040329 
L 353.514787 81.040329 
Q 353.615725 82.618142 354.465725 83.444235 
Q 355.315725 84.270329 356.8351 84.270329 
Q 357.714319 84.270329 358.540412 84.055173 
Q 359.366506 83.840017 360.181975 83.407048 
L 360.181975 84.852048 
Q 359.358537 85.200017 358.495256 85.383298 
Q 357.631975 85.566579 356.744787 85.566579 
Q 354.51885 85.566579 353.219944 84.272985 
Q 351.921037 82.976735 351.921037 80.766735 
Q 351.921037 78.485017 353.153537 77.146267 
Q 354.386037 75.80486 356.479162 75.80486 
Q 358.354475 75.80486 359.446194 77.013454 
Q 360.537912 78.219392 360.537912 80.293923 
z
M 359.010569 79.845017 
Q 358.994631 78.593923 358.309319 77.847517 
Q 357.624006 77.098454 356.4951 77.098454 
Q 355.217444 77.098454 354.449787 77.820954 
Q 353.682131 78.543454 353.565256 79.855642 
L 359.010569 79.845017 
z
M 368.430959 77.454392 
Q 368.173303 77.305642 367.87049 77.236579 
Q 367.567678 77.16486 367.203772 77.16486 
Q 365.907522 77.16486 365.21424 78.006892 
Q 364.520959 78.848923 364.520959 80.426735 
L 364.520959 85.32486 
L 362.985647 85.32486 
L 362.985647 76.027985 
L 364.520959 76.027985 
L 364.520959 77.472985 
Q 365.004397 76.625642 365.774709 76.216579 
Q 366.547678 75.80486 367.652678 75.80486 
Q 367.809397 75.80486 368.000647 75.82611 
Q 368.191897 75.844704 368.42299 75.887204 
L 368.430959 77.454392 
z
" style="fill: #ffffff"/>
    <path d="M 297.351037 102.950673 
L 300.089631 102.950673 
L 300.089631 93.494423 
L 297.109319 94.092079 
L 297.109319 92.564735 
L 300.073694 91.967079 
L 301.749787 91.967079 
L 301.749787 102.950673 
L 304.488381 102.950673 
L 304.488381 104.361142 
L 297.351037 104.361142 
L 297.351037 102.950673 
z
M 308.166955 102.950673 
L 310.905549 102.950673 
L 310.905549 93.494423 
L 307.925236 94.092079 
L 307.925236 92.564735 
L 310.889611 91.967079 
L 312.565705 91.967079 
L 312.565705 102.950673 
L 315.304299 102.950673 
L 315.304299 104.361142 
L 308.166955 104.361142 
L 308.166955 102.950673 
z
M 322.276623 98.474892 
Q 321.081311 98.474892 320.395998 99.115048 
Q 319.713342 99.755204 319.713342 100.873485 
Q 319.713342 101.994423 320.395998 102.634579 
Q 321.081311 103.274735 322.276623 103.274735 
Q 323.471936 103.274735 324.159904 102.631923 
Q 324.850529 101.986454 324.850529 100.873485 
Q 324.850529 99.755204 324.165217 99.115048 
Q 323.482561 98.474892 322.276623 98.474892 
z
M 320.600529 97.763017 
Q 319.522092 97.497392 318.919123 96.758954 
Q 318.318811 96.01786 318.318811 94.95536 
Q 318.318811 93.470517 319.375998 92.607235 
Q 320.435842 91.743954 322.276623 91.743954 
Q 324.128029 91.743954 325.182561 92.607235 
Q 326.237092 93.470517 326.237092 94.95536 
Q 326.237092 96.01786 325.634123 96.758954 
Q 325.033811 97.497392 323.963342 97.763017 
Q 325.174592 98.044579 325.849279 98.868017 
Q 326.526623 99.688798 326.526623 100.873485 
Q 326.526623 102.677079 325.426936 103.641298 
Q 324.327248 104.60286 322.276623 104.60286 
Q 320.228654 104.60286 319.126311 103.641298 
Q 318.026623 102.677079 318.026623 100.873485 
Q 318.026623 99.688798 318.706623 98.868017 
Q 319.389279 98.044579 320.600529 97.763017 
z
M 319.986936 95.114735 
Q 319.986936 96.076298 320.587248 96.615517 
Q 321.190217 97.154735 322.276623 97.154735 
Q 323.357717 97.154735 323.965998 96.615517 
Q 324.576936 96.076298 324.576936 95.114735 
Q 324.576936 94.150517 323.965998 93.611298 
Q 323.357717 93.072079 322.276623 93.072079 
Q 321.190217 93.072079 320.587248 93.611298 
Q 319.986936 94.150517 319.986936 95.114735 
z
M 329.506604 102.252079 
L 331.259729 102.252079 
L 331.259729 104.361142 
L 329.506604 104.361142 
L 329.506604 102.252079 
z
M 339.519006 93.428017 
L 335.284944 100.044735 
L 339.519006 100.044735 
L 339.519006 93.428017 
z
M 339.078069 91.967079 
L 341.187131 91.967079 
L 341.187131 100.044735 
L 342.956194 100.044735 
L 342.956194 101.439267 
L 341.187131 101.439267 
L 341.187131 104.361142 
L 339.519006 104.361142 
L 339.519006 101.439267 
L 333.924944 101.439267 
L 333.924944 99.82161 
L 339.078069 91.967079 
z
M 346.018518 102.950673 
L 348.757111 102.950673 
L 348.757111 93.494423 
L 345.776799 94.092079 
L 345.776799 92.564735 
L 348.741174 91.967079 
L 350.417268 91.967079 
L 350.417268 102.950673 
L 353.155861 102.950673 
L 353.155861 104.361142 
L 346.018518 104.361142 
L 346.018518 102.950673 
z
M 368.969182 96.849267 
Q 369.542932 95.818642 370.339807 95.329892 
Q 371.136682 94.841142 372.215119 94.841142 
Q 373.668088 94.841142 374.456994 95.858485 
Q 375.245901 96.873173 375.245901 98.748485 
L 375.245901 104.361142 
L 373.710588 104.361142 
L 373.710588 98.798954 
Q 373.710588 97.46286 373.235119 96.817392 
Q 372.762307 96.169267 371.792776 96.169267 
Q 370.605432 96.169267 369.914807 96.958173 
Q 369.226838 97.744423 369.226838 99.107079 
L 369.226838 104.361142 
L 367.691526 104.361142 
L 367.691526 98.798954 
Q 367.691526 97.454892 367.218713 96.812079 
Q 366.745901 96.169267 365.757776 96.169267 
Q 364.586369 96.169267 363.895744 96.960829 
Q 363.207776 97.752392 363.207776 99.107079 
L 363.207776 104.361142 
L 361.672463 104.361142 
L 361.672463 95.064267 
L 363.207776 95.064267 
L 363.207776 96.509267 
Q 363.731057 95.653954 364.461526 95.247548 
Q 365.191994 94.841142 366.196057 94.841142 
Q 367.210744 94.841142 367.919963 95.356454 
Q 368.629182 95.86911 368.969182 96.849267 
z
M 384.217053 95.33786 
L 384.217053 96.78286 
Q 383.571584 96.450829 382.87299 96.286142 
Q 382.177053 96.118798 381.42799 96.118798 
Q 380.291115 96.118798 379.722678 96.466767 
Q 379.15424 96.814735 379.15424 97.513329 
Q 379.15424 98.044579 379.560647 98.347392 
Q 379.967053 98.650204 381.196897 98.923798 
L 381.720178 99.040673 
Q 383.345803 99.388642 384.031115 100.023485 
Q 384.716428 100.658329 384.716428 101.795204 
Q 384.716428 103.091454 383.691115 103.848485 
Q 382.665803 104.60286 380.872834 104.60286 
Q 380.126428 104.60286 379.316272 104.456767 
Q 378.506115 104.310673 377.610959 104.021142 
L 377.610959 102.443329 
Q 378.458303 102.884267 379.279084 103.104735 
Q 380.099865 103.322548 380.907365 103.322548 
Q 381.985803 103.322548 382.564865 102.953329 
Q 383.146584 102.58411 383.146584 101.912079 
Q 383.146584 101.290517 382.726897 100.958485 
Q 382.309865 100.626454 380.888772 100.318329 
L 380.357522 100.193485 
Q 378.939084 99.895985 378.306897 99.277079 
Q 377.677365 98.658173 377.677365 97.579735 
Q 377.677365 96.267548 378.607053 95.555673 
Q 379.53674 94.841142 381.247365 94.841142 
Q 382.092053 94.841142 382.838459 94.965985 
Q 383.587522 95.088173 384.217053 95.33786 
z
" style="fill: #ffffff; stroke: #000000; stroke-width: 5"/>
    <path d="M 297.351037 102.950673 
L 300.089631 102.950673 
L 300.089631 93.494423 
L 297.109319 94.092079 
L 297.109319 92.564735 
L 300.073694 91.967079 
L 301.749787 91.967079 
L 301.749787 102.950673 
L 304.488381 102.950673 
L 304.488381 104.361142 
L 297.351037 104.361142 
L 297.351037 102.950673 
z
M 308.166955 102.950673 
L 310.905549 102.950673 
L 310.905549 93.494423 
L 307.925236 94.092079 
L 307.925236 92.564735 
L 310.889611 91.967079 
L 312.565705 91.967079 
L 312.565705 102.950673 
L 315.304299 102.950673 
L 315.304299 104.361142 
L 308.166955 104.361142 
L 308.166955 102.950673 
z
M 322.276623 98.474892 
Q 321.081311 98.474892 320.395998 99.115048 
Q 319.713342 99.755204 319.713342 100.873485 
Q 319.713342 101.994423 320.395998 102.634579 
Q 321.081311 103.274735 322.276623 103.274735 
Q 323.471936 103.274735 324.159904 102.631923 
Q 324.850529 101.986454 324.850529 100.873485 
Q 324.850529 99.755204 324.165217 99.115048 
Q 323.482561 98.474892 322.276623 98.474892 
z
M 320.600529 97.763017 
Q 319.522092 97.497392 318.919123 96.758954 
Q 318.318811 96.01786 318.318811 94.95536 
Q 318.318811 93.470517 319.375998 92.607235 
Q 320.435842 91.743954 322.276623 91.743954 
Q 324.128029 91.743954 325.182561 92.607235 
Q 326.237092 93.470517 326.237092 94.95536 
Q 326.237092 96.01786 325.634123 96.758954 
Q 325.033811 97.497392 323.963342 97.763017 
Q 325.174592 98.044579 325.849279 98.868017 
Q 326.526623 99.688798 326.526623 100.873485 
Q 326.526623 102.677079 325.426936 103.641298 
Q 324.327248 104.60286 322.276623 104.60286 
Q 320.228654 104.60286 319.126311 103.641298 
Q 318.026623 102.677079 318.026623 100.873485 
Q 318.026623 99.688798 318.706623 98.868017 
Q 319.389279 98.044579 320.600529 97.763017 
z
M 319.986936 95.114735 
Q 319.986936 96.076298 320.587248 96.615517 
Q 321.190217 97.154735 322.276623 97.154735 
Q 323.357717 97.154735 323.965998 96.615517 
Q 324.576936 96.076298 324.576936 95.114735 
Q 324.576936 94.150517 323.965998 93.611298 
Q 323.357717 93.072079 322.276623 93.072079 
Q 321.190217 93.072079 320.587248 93.611298 
Q 319.986936 94.150517 319.986936 95.114735 
z
M 329.506604 102.252079 
L 331.259729 102.252079 
L 331.259729 104.361142 
L 329.506604 104.361142 
L 329.506604 102.252079 
z
M 339.519006 93.428017 
L 335.284944 100.044735 
L 339.519006 100.044735 
L 339.519006 93.428017 
z
M 339.078069 91.967079 
L 341.187131 91.967079 
L 341.187131 100.044735 
L 342.956194 100.044735 
L 342.956194 101.439267 
L 341.187131 101.439267 
L 341.187131 104.361142 
L 339.519006 104.361142 
L 339.519006 101.439267 
L 333.924944 101.439267 
L 333.924944 99.82161 
L 339.078069 91.967079 
z
M 346.018518 102.950673 
L 348.757111 102.950673 
L 348.757111 93.494423 
L 345.776799 94.092079 
L 345.776799 92.564735 
L 348.741174 91.967079 
L 350.417268 91.967079 
L 350.417268 102.950673 
L 353.155861 102.950673 
L 353.155861 104.361142 
L 346.018518 104.361142 
L 346.018518 102.950673 
z
M 368.969182 96.849267 
Q 369.542932 95.818642 370.339807 95.329892 
Q 371.136682 94.841142 372.215119 94.841142 
Q 373.668088 94.841142 374.456994 95.858485 
Q 375.245901 96.873173 375.245901 98.748485 
L 375.245901 104.361142 
L 373.710588 104.361142 
L 373.710588 98.798954 
Q 373.710588 97.46286 373.235119 96.817392 
Q 372.762307 96.169267 371.792776 96.169267 
Q 370.605432 96.169267 369.914807 96.958173 
Q 369.226838 97.744423 369.226838 99.107079 
L 369.226838 104.361142 
L 367.691526 104.361142 
L 367.691526 98.798954 
Q 367.691526 97.454892 367.218713 96.812079 
Q 366.745901 96.169267 365.757776 96.169267 
Q 364.586369 96.169267 363.895744 96.960829 
Q 363.207776 97.752392 363.207776 99.107079 
L 363.207776 104.361142 
L 361.672463 104.361142 
L 361.672463 95.064267 
L 363.207776 95.064267 
L 363.207776 96.509267 
Q 363.731057 95.653954 364.461526 95.247548 
Q 365.191994 94.841142 366.196057 94.841142 
Q 367.210744 94.841142 367.919963 95.356454 
Q 368.629182 95.86911 368.969182 96.849267 
z
M 384.217053 95.33786 
L 384.217053 96.78286 
Q 383.571584 96.450829 382.87299 96.286142 
Q 382.177053 96.118798 381.42799 96.118798 
Q 380.291115 96.118798 379.722678 96.466767 
Q 379.15424 96.814735 379.15424 97.513329 
Q 379.15424 98.044579 379.560647 98.347392 
Q 379.967053 98.650204 381.196897 98.923798 
L 381.720178 99.040673 
Q 383.345803 99.388642 384.031115 100.023485 
Q 384.716428 100.658329 384.716428 101.795204 
Q 384.716428 103.091454 383.691115 103.848485 
Q 382.665803 104.60286 380.872834 104.60286 
Q 380.126428 104.60286 379.316272 104.456767 
Q 378.506115 104.310673 377.610959 104.021142 
L 377.610959 102.443329 
Q 378.458303 102.884267 379.279084 103.104735 
Q 380.099865 103.322548 380.907365 103.322548 
Q 381.985803 103.322548 382.564865 102.953329 
Q 383.146584 102.58411 383.146584 101.912079 
Q 383.146584 101.290517 382.726897 100.958485 
Q 382.309865 100.626454 380.888772 100.318329 
L 380.357522 100.193485 
Q 378.939084 99.895985 378.306897 99.277079 
Q 377.677365 98.658173 377.677365 97.579735 
Q 377.677365 96.267548 378.607053 95.555673 
Q 379.53674 94.841142 381.247365 94.841142 
Q 382.092053 94.841142 382.838459 94.965985 
Q 383.587522 95.088173 384.217053 95.33786 
z
" style="fill: #ffffff"/>
   </g>
   <g id="text_13">
    <!-- Mean timings: goto vs direct -->
    <g transform="translate(101.278437 22.396875) scale(0.2 -0.2)">
     <defs>
      <path id="DejaVuSans-4d" d="M 628 4666 
L 1569 4666 
L 2759 1491 
L 3956 4666 
L 4897 4666 
L 4897 0 
L 4281 0 
L 4281 4097 
L 3078 897 
L 2444 897 
L 1241 4097 
L 1241 0 
L 628 0 
L 628 4666 
z
" transform="scale(0.015625)"/>
      <path id="DejaVuSans-61" d="M 2194 1759 
Q 1497 1759 1228 1600 
Q 959 1441 959 1056 
Q 959 750 1161 570 
Q 1363 391 1709 391 
Q 2188 391 2477 730 
Q 2766 1069 2766 1631 
L 2766 1759 
L 2194 1759 
z
M 3341 1997 
L 3341 0 
L 2766 0 
L 2766 531 
Q 2569 213 2275 61 
Q 1981 -91 1556 -91 
Q 1019 -91 701 211 
Q 384 513 384 1019 
Q 384 1609 779 1909 
Q 1175 2209 1959 2209 
L 2766 2209 
L 2766 2266 
Q 2766 2663 2505 2880 
Q 2244 3097 1772 3097 
Q 1472 3097 1187 3025 
Q 903 2953 641 2809 
L 641 3341 
Q 956 3463 1253 3523 
Q 1550 3584 1831 3584 
Q 2591 3584 2966 3190 
Q 3341 2797 3341 1997 
z
" transform="scale(0.015625)"/>
      <path id="DejaVuSans-6e" d="M 3513 2113 
L 3513 0 
L 2938 0 
L 2938 2094 
Q 2938 2591 2744 2837 
Q 2550 3084 2163 3084 
Q 1697 3084 1428 2787 
Q 1159 2491 1159 1978 
L 1159 0 
L 581 0 
L 581 3500 
L 1159 3500 
L 1159 2956 
Q 1366 3272 1645 3428 
Q 1925 3584 2291 3584 
Q 2894 3584 3203 3211 
Q 3513 2838 3513 2113 
z
" transform="scale(0.015625)"/>
      <path id="DejaVuSans-3a" d="M 750 794 
L 1409 794 
L 1409 0 
L 750 0 
L 750 794 
z
M 750 3309 
L 1409 3309 
L 1409 2516 
L 750 2516 
L 750 3309 
z
" transform="scale(0.015625)"/>
      <path id="DejaVuSans-76" d="M 191 3500 
L 800 3500 
L 1894 563 
L 2988 3500 
L 3597 3500 
L 2284 0 
L 1503 0 
L 191 3500 
z
" transform="scale(0.015625)"/>
     </defs>
     <use xlink:href="#DejaVuSans-4d"/>
     <use xlink:href="#DejaVuSans-65" transform="translate(86.279297 0)"/>
     <use xlink:href="#DejaVuSans-61" transform="translate(147.802734 0)"/>
     <use xlink:href="#DejaVuSans-6e" transform="translate(209.082031 0)"/>
     <use xlink:href="#DejaVuSans-20" transform="translate(272.460938 0)"/>
     <use xlink:href="#DejaVuSans-74" transform="translate(304.248047 0)"/>
     <use xlink:href="#DejaVuSans-69" transform="translate(343.457031 0)"/>
     <use xlink:href="#DejaVuSans-6d" transform="translate(371.240234 0)"/>
     <use xlink:href="#DejaVuSans-69" transform="translate(468.652344 0)"/>
     <use xlink:href="#DejaVuSans-6e" transform="translate(496.435547 0)"/>
     <use xlink:href="#DejaVuSans-67" transform="translate(559.814453 0)"/>
     <use xlink:href="#DejaVuSans-73" transform="translate(623.291016 0)"/>
     <use xlink:href="#DejaVuSans-3a" transform="translate(675.390625 0)"/>
     <use xlink:href="#DejaVuSans-20" transform="translate(709.082031 0)"/>
     <use xlink:href="#DejaVuSans-67" transform="translate(740.869141 0)"/>
     <use xlink:href="#DejaVuSans-6f" transform="translate(804.345703 0)"/>
     <use xlink:href="#DejaVuSans-74" transform="translate(865.527344 0)"/>
     <use xlink:href="#DejaVuSans-6f" transform="translate(904.736328 0)"/>
     <use xlink:href="#DejaVuSans-20" transform="translate(965.917969 0)"/>
     <use xlink:href="#DejaVuSans-76" transform="translate(997.705078 0)"/>
     <use xlink:href="#DejaVuSans-73" transform="translate(1056.884766 0)"/>
     <use xlink:href="#DejaVuSans-20" transform="translate(1108.984375 0)"/>
     <use xlink:href="#DejaVuSans-64" transform="translate(1140.771484 0)"/>
     <use xlink:href="#DejaVuSans-69" transform="translate(1204.248047 0)"/>
     <use xlink:href="#DejaVuSans-72" transform="translate(1232.03125 0)"/>
     <use xlink:href="#DejaVuSans-65" transform="translate(1270.894531 0)"/>
     <use xlink:href="#DejaVuSans-63" transform="translate(1332.417969 0)"/>
     <use xlink:href="#DejaVuSans-74" transform="translate(1387.398438 0)"/>
    </g>
   </g>
  </g>
 </g>
 <defs>
  <clipPath id="ped7f48df2f">
   <rect x="69.932813" y="34.396875" width="348.01" height="358.28"/>
  </clipPath>
 </defs>
</svg>
